<?xml version="1.0" encoding="UTF-8"?>
<svg version="1.1" xmlns="http://www.w3.org/2000/svg" width="2613" height="339">
<path d="M0 0 C14.42870081 10.97269814 22.67102783 27.36379678 25.78369141 44.99511719 C28.92721736 68.8122823 23.28247881 89.42584266 9.22119141 108.80761719 C-1.39070905 119.91309441 -13.85580801 126.45190029 -29.27880859 126.93261719 C-44.32005662 126.60812326 -56.1778813 120.58171895 -66.95849609 110.32324219 C-79.50922131 96.79504616 -84.06155894 79.41526463 -86.46630859 61.62011719 C-129.1738522 69.38047187 -129.1738522 69.38047187 -162.33740234 95.49121094 C-165.20985719 100.90812405 -166.16745703 106.29477506 -164.52880859 112.24511719 C-159.19521872 125.47428334 -145.21385685 133.14429624 -132.82373047 138.63818359 C-87.92823903 157.33843904 -36.13627189 157.32640738 11.53369141 152.62011719 C25.71562177 174.48509431 33.18334726 202.35958865 27.77978516 228.22949219 C23.8647507 242.1860167 16.12045319 253.28069751 3.53369141 260.62011719 C-19.98515681 271.81956872 -46.35562955 268.54261847 -70.31005859 260.40185547 C-77.21629089 257.89803348 -83.86128594 254.82325578 -90.46630859 251.62011719 C-91.54162842 251.10191406 -91.54162842 251.10191406 -92.63867188 250.57324219 C-110.93352798 241.64038601 -127.12084619 229.46470683 -142.11083984 215.75292969 C-144.12942063 213.92516002 -146.18859212 212.17665525 -148.27880859 210.43261719 C-158.59311312 201.41020535 -167.49467811 190.72903292 -175.46630859 179.62011719 C-175.86914062 179.06308105 -176.27197266 178.50604492 -176.68701172 177.93212891 C-195.30530612 151.91520166 -211.6733938 117.91307281 -206.46630859 85.05761719 C-204.01022763 71.8235692 -197.68971733 59.99072087 -186.93505859 51.65917969 C-169.53320014 39.80791402 -147.18367442 39.26993803 -126.96630859 42.74511719 C-112.50483865 45.9959098 -98.89231815 51.43756783 -85.46630859 57.62011719 C-85.52818359 56.44449219 -85.59005859 55.26886719 -85.65380859 54.05761719 C-85.56412812 34.9855696 -77.47384424 18.18636949 -64.71630859 4.37011719 C-46.69324343 -12.8064635 -20.02310708 -14.43650059 0 0 Z " fill="#FFFFFF" transform="translate(2010.46630859375,29.3798828125)"/>
<path d="M0 0 C18 0 18 0 22.43017578 3.58007812 C24.00344849 5.94616699 24.00344849 5.94616699 25.4453125 8.53125 C25.99694061 9.39689575 26.54856873 10.2625415 27.11691284 11.15441895 C28.84909343 13.90274815 30.48558006 16.69556395 32.125 19.5 C33.28966319 21.38257518 34.46019094 23.26153557 35.63671875 25.13671875 C38.49361654 29.71820193 41.27423204 34.33944111 44 39 C43.96447021 37.854104 43.92894043 36.70820801 43.89233398 35.52758789 C43.76234163 31.29172925 43.63904964 27.05569789 43.51782227 22.81958008 C43.46432466 20.9832625 43.40898954 19.14699753 43.35180664 17.31079102 C43.27011136 14.67736153 43.19494262 12.04381595 43.12109375 9.41015625 C43.09405869 8.58411392 43.06702362 7.75807159 43.03916931 6.90699768 C42.98716989 4.9386419 42.98812163 2.96900669 43 1 C43.33 0.67 43.66 0.34 44 0 C48.95 0 53.9 0 59 0 C59 22.77 59 45.54 59 69 C44 69 44 69 40.62890625 66.359375 C39.53320312 64.63305664 39.53320312 64.63305664 38.5625 62.75 C38.17384766 62.11247803 37.78519531 61.47495605 37.38476562 60.81811523 C36.59356577 59.51687635 35.82311119 58.20277968 35.07470703 56.87646484 C33.52626256 54.17284281 31.76217477 51.63044057 30 49.0625 C28.68 47.061875 27.36 45.06125 26 43 C22.7 38.05 19.4 33.1 16 28 C16 41.53 16 55.06 16 69 C10.72 69 5.44 69 0 69 C0 46.23 0 23.46 0 0 Z " fill="#FFFFFF" transform="translate(552,95)"/>
<path d="M0 0 C0.74900574 0.00141495 1.49801147 0.0028299 2.26971436 0.00428772 C4.65380912 0.00986966 7.03780878 0.0224188 9.421875 0.03515625 C11.04166531 0.04017359 12.66145709 0.04473609 14.28125 0.04882812 C18.24482812 0.05983317 22.20833545 0.07708534 26.171875 0.09765625 C25.841875 3.72765625 25.511875 7.35765625 25.171875 11.09765625 C23.191875 11.09765625 21.211875 11.09765625 19.171875 11.09765625 C19.666875 12.08765625 19.666875 12.08765625 20.171875 13.09765625 C20.57232768 17.87998542 20.8098678 22.46723021 19.046875 26.97265625 C18.428125 27.67390625 17.809375 28.37515625 17.171875 29.09765625 C16.40875 29.96390625 15.645625 30.83015625 14.859375 31.72265625 C10.00033887 35.6620794 3.15788731 36.08905418 -2.828125 37.09765625 C0.1156116 39.06014732 2.35902633 39.66946271 5.77124023 40.39111328 C13.05342566 41.93699667 18.06289473 43.36562961 23.171875 49.09765625 C25.26605436 53.28601496 24.59033188 58.53647623 24.171875 63.09765625 C21.8266038 68.25725289 18.07766494 71.41717309 13.171875 74.09765625 C4.30734908 77.36353422 -7.07420539 77.73168386 -15.921875 74.19921875 C-20.07492666 71.79929955 -22.95981024 68.63882601 -24.51953125 64.07421875 C-25.4031398 59.21902231 -24.42124356 56.17255685 -21.828125 52.09765625 C-20.86277978 50.73902224 -19.87535351 49.39422488 -18.828125 48.09765625 C-19.488125 47.76765625 -20.148125 47.43765625 -20.828125 47.09765625 C-20.40800741 43.56866852 -19.84417392 41.12737647 -18.140625 37.97265625 C-16.54156056 35.28170719 -16.54156056 35.28170719 -17.390625 33.03515625 C-19.14390961 30.67203351 -20.96815554 28.37761882 -22.828125 26.09765625 C-25.01361257 21.72668111 -24.55815887 15.60395086 -23.21484375 10.9921875 C-20.57661677 5.72735568 -15.71063306 2.41017576 -10.19238281 0.54467773 C-6.80073408 -0.09659745 -3.43764418 -0.02453819 0 0 Z M-4.953125 11.22265625 C-7.54351631 13.81304756 -7.75682026 15.46111433 -7.828125 19.09765625 C-6.86110397 22.44912212 -6.86110397 22.44912212 -4.828125 25.09765625 C-2.44929011 26.42364185 -2.44929011 26.42364185 0.171875 26.09765625 C2.66908324 24.76919665 2.66908324 24.76919665 4.171875 22.09765625 C4.7344982 19.31863863 4.74676951 16.87536437 4.171875 14.09765625 C2.52434485 11.53080585 2.52434485 11.53080585 0.171875 10.09765625 C-2.78696821 9.86371239 -2.78696821 9.86371239 -4.953125 11.22265625 Z M-7.828125 54.09765625 C-9.57711345 58.12504832 -9.57711345 58.12504832 -9.203125 62.34765625 C-7.49411443 64.52276061 -6.47180249 65.24024733 -3.828125 66.09765625 C0.50621944 66.57049382 2.46244891 66.58066976 6.109375 64.09765625 C6.79 63.43765625 7.470625 62.77765625 8.171875 62.09765625 C7.83521585 59.61517501 7.83521585 59.61517501 6.171875 57.09765625 C1.79424838 54.86524108 -2.90146505 53.62088271 -7.828125 54.09765625 Z " fill="#FFFFFF" transform="translate(1212.828125,111.90234375)"/>
<path d="M0 0 C0.74886475 0.00523682 1.49772949 0.01047363 2.26928711 0.01586914 C3.07817383 0.0190918 3.88706055 0.02231445 4.72045898 0.02563477 C5.5705957 0.03401367 6.42073242 0.04239258 7.29663086 0.05102539 C8.15063477 0.05553711 9.00463867 0.06004883 9.88452148 0.06469727 C12.00108749 0.07652166 14.11761771 0.0944577 16.23413086 0.11352539 C16.24871338 1.42957764 16.2632959 2.74562988 16.27832031 4.1015625 C16.33659385 9.01638016 16.41382409 13.93075354 16.49658203 18.84521484 C16.52969521 20.96623486 16.55776886 23.08734012 16.58056641 25.20849609 C16.61436355 28.26965423 16.66669134 31.33004077 16.72241211 34.39086914 C16.72880203 35.32873764 16.73519196 36.26660614 16.74177551 37.2328949 C16.87153882 43.13463293 17.46533712 48.80001291 20.23413086 54.11352539 C23.31933089 56.17032541 24.1468659 56.40819353 27.67163086 56.42602539 C28.4334668 56.4427832 29.19530273 56.45954102 29.98022461 56.47680664 C32.86117597 56.01245919 34.09173199 55.08362495 36.23413086 53.11352539 C40.02349262 43.12686126 38.45543402 30.38600862 38.35913086 19.86352539 C38.34907892 17.94295715 38.339957 16.02238381 38.33178711 14.10180664 C38.30995374 9.43891817 38.27554641 4.77627936 38.23413086 0.11352539 C43.51413086 0.11352539 48.79413086 0.11352539 54.23413086 0.11352539 C54.28384156 6.76634655 54.31999701 13.41905779 54.34399414 20.07202148 C54.35400605 22.33180629 54.36761958 24.59157829 54.38500977 26.85131836 C54.40947052 30.11323217 54.42066239 33.37497359 54.42944336 36.63696289 C54.43976593 37.63529144 54.4500885 38.63362 54.46072388 39.66220093 C54.46208634 48.32284485 54.21097251 57.3502572 48.23413086 64.11352539 C38.77203973 71.27823637 28.70674276 70.98508428 17.23413086 70.11352539 C10.34839182 68.8047348 6.1215927 65.6674172 1.60913086 60.40649414 C-2.29221676 53.90055366 -2.11243458 46.89673708 -2.21508789 39.52758789 C-2.23682571 38.43006195 -2.25856354 37.33253601 -2.28096008 36.20175171 C-2.32471013 33.89393956 -2.36394689 31.58603793 -2.39892578 29.27807617 C-2.45350881 25.72944504 -2.52362784 22.18136624 -2.59594727 18.63305664 C-2.63657199 16.38958337 -2.67631684 14.14609396 -2.71508789 11.90258789 C-2.73584885 10.83601959 -2.7566098 9.76945129 -2.77799988 8.67056274 C-2.79164078 7.69219452 -2.80528168 6.71382629 -2.81933594 5.70581055 C-2.83328903 4.84089996 -2.84724213 3.97598938 -2.86161804 3.08486938 C-2.73830115 0.54593667 -2.54511189 0.16362188 0 0 Z " fill="#FFFFFF" transform="translate(2.765869140625,94.886474609375)"/>
<path d="M0 0 C0 25.41 0 50.82 0 77 C-5.94 77 -11.88 77 -18 77 C-18.33 76.34 -18.66 75.68 -19 75 C-19.70253906 75.48726563 -20.40507813 75.97453125 -21.12890625 76.4765625 C-25.91168143 79.01436158 -30.71438953 78.52425213 -36 78 C-42.08113976 75.89924263 -45.8835398 72.23292039 -48.75 66.5 C-51.81719365 57.91185777 -52.13233416 48.6661245 -49 40 C-45.46871712 33.18966874 -41.50019251 28.77840469 -34.2421875 25.91015625 C-30.71128715 24.91895169 -27.78337395 24.80033931 -24.125 24.875 C-21.093125 24.936875 -21.093125 24.936875 -18 25 C-18 17.41 -18 9.82 -18 2 C-15.586875 1.484375 -13.17375 0.96875 -10.6875 0.4375 C-9.55380981 0.18891235 -9.55380981 0.18891235 -8.3972168 -0.06469727 C-5.10358295 -0.7453022 -3.24285517 -1.08095172 0 0 Z M-30 41 C-33.18411471 45.77617207 -33.39165412 50.32101524 -33 56 C-31.9128115 59.49453448 -30.62184045 62.37815955 -28 65 C-26.08819451 65.28005058 -26.08819451 65.28005058 -24 65.1875 C-22.948125 65.17783203 -22.948125 65.17783203 -21.875 65.16796875 C-19.90943627 65.10706133 -19.90943627 65.10706133 -18 64 C-18 55.09 -18 46.18 -18 37 C-24.19494292 37 -25.40988041 37.3487685 -30 41 Z " fill="#FFFFFF" transform="translate(1016,87)"/>
<path d="M0 0 C0 25.41 0 50.82 0 77 C-5.94 77 -11.88 77 -18 77 C-18.33 76.34 -18.66 75.68 -19 75 C-19.70253906 75.48726563 -20.40507812 75.97453125 -21.12890625 76.4765625 C-25.91168143 79.01436158 -30.71438953 78.52425213 -36 78 C-42.08113976 75.89924263 -45.8835398 72.23292039 -48.75 66.5 C-51.81719365 57.91185777 -52.13233416 48.6661245 -49 40 C-45.46871712 33.18966874 -41.50019251 28.77840469 -34.2421875 25.91015625 C-30.71128715 24.91895169 -27.78337395 24.80033931 -24.125 24.875 C-21.093125 24.936875 -21.093125 24.936875 -18 25 C-18 17.41 -18 9.82 -18 2 C-15.586875 1.484375 -13.17375 0.96875 -10.6875 0.4375 C-9.55380981 0.18891235 -9.55380981 0.18891235 -8.3972168 -0.06469727 C-5.10358295 -0.7453022 -3.24285517 -1.08095172 0 0 Z M-30 41 C-33.18411471 45.77617207 -33.39165412 50.32101524 -33 56 C-31.9128115 59.49453448 -30.62184045 62.37815955 -28 65 C-26.08819451 65.28005058 -26.08819451 65.28005058 -24 65.1875 C-22.948125 65.17783203 -22.948125 65.17783203 -21.875 65.16796875 C-19.90943627 65.10706133 -19.90943627 65.10706133 -18 64 C-18 55.09 -18 46.18 -18 37 C-24.19494292 37 -25.40988041 37.3487685 -30 41 Z " fill="#FFFFFF" transform="translate(514,87)"/>
<path d="M0 0 C0 25.41 0 50.82 0 77 C-5.94 77 -11.88 77 -18 77 C-18.33 76.34 -18.66 75.68 -19 75 C-20.05767578 75.72896484 -20.05767578 75.72896484 -21.13671875 76.47265625 C-26.42297804 79.29247533 -32.6763673 78.91536114 -38.3828125 77.34375 C-43.41048335 75.12622217 -46.53056785 71.8788781 -49 67 C-52.33720892 57.46511736 -52.07851631 47.28054844 -48 38 C-43.92007738 30.64088724 -38.79613423 27.59871141 -31 25 C-26.66328697 24.86498403 -22.33988266 24.95703086 -18 25 C-18 17.41 -18 9.82 -18 2 C-15.586875 1.484375 -13.17375 0.96875 -10.6875 0.4375 C-9.55380981 0.18891235 -9.55380981 0.18891235 -8.3972168 -0.06469727 C-5.10358295 -0.7453022 -3.24285517 -1.08095172 0 0 Z M-29 40 C-32.8757786 44.29104059 -33.29075797 48.17824725 -33.2265625 53.90234375 C-32.75899408 58.23138243 -31.0944111 61.9055889 -28 65 C-26.08819451 65.28005058 -26.08819451 65.28005058 -24 65.1875 C-22.948125 65.17783203 -22.948125 65.17783203 -21.875 65.16796875 C-19.90943627 65.10706133 -19.90943627 65.10706133 -18 64 C-18 55.09 -18 46.18 -18 37 C-24.25044857 36.92313216 -24.25044857 36.92313216 -29 40 Z " fill="#FFFFFF" transform="translate(405,87)"/>
<path d="M0 0 C2.31 0 4.62 0 7 0 C7 111.87 7 223.74 7 339 C4.69 339 2.38 339 0 339 C0 227.13 0 115.26 0 0 Z " fill="#FFFFFF" transform="translate(1670,0)"/>
<path d="M0 0 C0.76441406 0.07863281 1.52882813 0.15726562 2.31640625 0.23828125 C4.4375 0.6875 4.4375 0.6875 7.4375 2.6875 C9.98070602 2.32418485 12.25639966 1.40403473 14.6875 0.5625 C19.787934 -0.62760127 23.72208698 -0.19317449 28.75 1.4375 C32.18819565 3.98431159 33.67668938 7.5895471 34.4375 11.6875 C34.51970526 14.07693295 34.54495472 16.46854847 34.53515625 18.859375 C34.5337413 19.5417926 34.53232635 20.22421021 34.53086853 20.92730713 C34.52529084 23.09741684 34.51274254 25.2674217 34.5 27.4375 C34.49498211 28.91275892 34.49041971 30.38801947 34.48632812 31.86328125 C34.47618148 35.47142663 34.45660199 39.07934655 34.4375 42.6875 C29.4875 42.6875 24.5375 42.6875 19.4375 42.6875 C19.37691406 40.91761719 19.31632812 39.14773437 19.25390625 37.32421875 C19.16950248 35.00780405 19.08485439 32.69139824 19 30.375 C18.96068359 29.20775391 18.92136719 28.04050781 18.88085938 26.83789062 C18.83896484 25.71962891 18.79707031 24.60136719 18.75390625 23.44921875 C18.69891968 21.9017395 18.69891968 21.9017395 18.64282227 20.32299805 C18.53588758 17.58001742 18.53588758 17.58001742 17.4375 14.6875 C14.9625 14.1925 14.9625 14.1925 12.4375 13.6875 C12.1075 23.2575 11.7775 32.8275 11.4375 42.6875 C6.4875 42.6875 1.5375 42.6875 -3.5625 42.6875 C-3.62308594 40.91761719 -3.68367188 39.14773437 -3.74609375 37.32421875 C-3.83049752 35.00780405 -3.91514561 32.69139824 -4 30.375 C-4.03931641 29.20775391 -4.07863281 28.04050781 -4.11914062 26.83789062 C-4.16103516 25.71962891 -4.20292969 24.60136719 -4.24609375 23.44921875 C-4.28275146 22.41756592 -4.31940918 21.38591309 -4.35717773 20.32299805 C-4.46411242 17.58001742 -4.46411242 17.58001742 -5.5625 14.6875 C-6.5525 14.3575 -7.5425 14.0275 -8.5625 13.6875 C-9.5525 14.1825 -9.5525 14.1825 -10.5625 14.6875 C-10.8925 23.9275 -11.2225 33.1675 -11.5625 42.6875 C-16.5125 42.6875 -21.4625 42.6875 -26.5625 42.6875 C-26.5625 28.8275 -26.5625 14.9675 -26.5625 0.6875 C-20.5625 0.6875 -14.5625 0.6875 -8.5625 0.6875 C-7.93472656 0.51605469 -7.30695312 0.34460938 -6.66015625 0.16796875 C-4.27684173 -0.37793011 -2.42420285 -0.27482503 0 0 Z " fill="#FFFFFF" transform="translate(2188.5625,107.3125)"/>
<path d="M0 0 C0.33 1.32 0.66 2.64 1 4 C1.80050781 3.566875 1.80050781 3.566875 2.6171875 3.125 C8.44577278 0.22079142 13.49424558 -1.09535661 20 0 C24.56688208 2.24192393 26.69993318 4.53389816 29 9 C30.87460362 18.28768635 30.11880351 28.29525909 30.0625 37.75 C30.05746985 39.23697764 30.05290965 40.72395695 30.04882812 42.2109375 C30.03881579 45.80736809 30.01922088 49.40356052 30 53 C24.06 53 18.12 53 12 53 C11.95101563 50.50824219 11.90203125 48.01648438 11.8515625 45.44921875 C11.79755548 43.03647851 11.74024696 40.62383774 11.68261719 38.21118164 C11.64433007 36.53417366 11.60947669 34.85708362 11.578125 33.17993164 C11.53246821 30.76939568 11.4744759 28.35942443 11.4140625 25.94921875 C11.40251129 25.19912033 11.39096008 24.44902191 11.37905884 23.67619324 C11.27304541 19.93872287 11.12380918 18.18571377 9 15 C5.92078868 14.74339906 3.78863007 14.60568496 1 16 C0.67 28.21 0.34 40.42 0 53 C-5.94 53 -11.88 53 -18 53 C-18.33 36.5 -18.66 20 -19 3 C-12.33349437 1.0952841 -6.88412866 -0.16390783 0 0 Z " fill="#FFFFFF" transform="translate(1153,111)"/>
<path d="M0 0 C0.33 1.32 0.66 2.64 1 4 C1.80050781 3.566875 1.80050781 3.566875 2.6171875 3.125 C8.44577278 0.22079142 13.49424558 -1.09535661 20 0 C24.55569449 2.23643184 26.74555414 4.51499434 29 9 C30.65998484 18.74992532 30.12539747 29.01461203 30.0625 38.875 C30.05746511 40.25650876 30.05290579 41.63801933 30.04882812 43.01953125 C30.03719581 46.34637364 30.01926722 49.67319306 30 53 C24.06 53 18.12 53 12 53 C11.95101562 50.59203125 11.90203125 48.1840625 11.8515625 45.703125 C11.79752512 43.36647421 11.74022853 41.02992445 11.68261719 38.69335938 C11.64437642 37.07169141 11.60951497 35.44994004 11.578125 33.828125 C11.53236743 31.49448883 11.47439184 29.16142438 11.4140625 26.828125 C11.40251129 26.10506165 11.39096008 25.38199829 11.37905884 24.63702393 C11.27146822 20.95276792 11.02278111 18.13708508 9 15 C4.85906302 14.79029441 4.85906302 14.79029441 1 16 C0.67 28.21 0.34 40.42 0 53 C-5.94 53 -11.88 53 -18 53 C-18.33 36.5 -18.66 20 -19 3 C-12.33349437 1.0952841 -6.88412866 -0.16390783 0 0 Z " fill="#FFFFFF" transform="translate(84,111)"/>
<path d="M0 0 C0.33 1.32 0.66 2.64 1 4 C1.80050781 3.566875 1.80050781 3.566875 2.6171875 3.125 C8.44577278 0.22079142 13.49424558 -1.09535661 20 0 C24.44407643 2.18163752 27.03267217 4.44408293 29 9 C29.87492205 14.59168057 30.13674664 20.00496245 30.09765625 25.65625 C30.0962413 26.44398804 30.09482635 27.23172607 30.09336853 28.04333496 C30.08782612 30.52893064 30.07528485 33.01443211 30.0625 35.5 C30.05747754 37.19791535 30.05291595 38.89583214 30.04882812 40.59375 C30.03873174 44.72923108 30.01914578 48.86451161 30 53 C24.06 53 18.12 53 12 53 C11.95101563 50.50824219 11.90203125 48.01648438 11.8515625 45.44921875 C11.79755548 43.03647851 11.74024696 40.62383774 11.68261719 38.21118164 C11.64433007 36.53417366 11.60947669 34.85708362 11.578125 33.17993164 C11.53246821 30.76939568 11.4744759 28.35942443 11.4140625 25.94921875 C11.40251129 25.19912033 11.39096008 24.44902191 11.37905884 23.67619324 C11.27304541 19.93872287 11.12380918 18.18571377 9 15 C5.92078868 14.74339906 3.78863007 14.60568496 1 16 C1.00785522 17.62796509 1.00785522 17.62796509 1.01586914 19.28881836 C1.03391836 23.30117982 1.04543171 27.31353767 1.05493164 31.32592773 C1.05997204 33.06519168 1.0668043 34.80445136 1.07543945 36.54370117 C1.08751792 39.03825937 1.09323108 41.53276173 1.09765625 44.02734375 C1.10281754 44.80963852 1.10797882 45.59193329 1.11329651 46.39793396 C1.11349226 48.26567114 1.06199694 50.13329204 1 52 C0 53 0 53 -1.76586914 53.11352539 C-2.51473389 53.10828857 -3.26359863 53.10305176 -4.03515625 53.09765625 C-4.84404297 53.09443359 -5.65292969 53.09121094 -6.48632812 53.08789062 C-7.33646484 53.07951172 -8.18660156 53.07113281 -9.0625 53.0625 C-9.91650391 53.05798828 -10.77050781 53.05347656 -11.65039062 53.04882812 C-13.76695663 53.03700373 -15.88348685 53.01906769 -18 53 C-17.99476318 52.40912598 -17.98952637 51.81825195 -17.98413086 51.20947266 C-17.88269592 37.82262837 -18.07348948 24.49046895 -18.73217773 11.11767578 C-18.78059814 10.06950684 -18.82901855 9.02133789 -18.87890625 7.94140625 C-18.9260376 7.01013916 -18.97316895 6.07887207 -19.02172852 5.11938477 C-19 3 -19 3 -18 2 C-16.11370887 1.59809971 -14.21507944 1.25342647 -12.3125 0.9375 C-11.27738281 0.76089844 -10.24226563 0.58429688 -9.17578125 0.40234375 C-6.07778231 0.00985434 -3.11875137 -0.07013684 0 0 Z " fill="#FFFFFF" transform="translate(1313,111)"/>
<path d="M0 0 C0.33 1.32 0.66 2.64 1 4 C1.80050781 3.566875 1.80050781 3.566875 2.6171875 3.125 C8.50639646 0.19058446 13.43877717 -0.91500046 20 0 C23.72658876 1.28736703 25.42977948 2.25281449 27.8125 5.375 C30.24323378 10.74820098 30.21189685 16.18559308 30.3515625 21.984375 C30.37471527 22.84057434 30.39786804 23.69677368 30.42172241 24.57891846 C30.46918912 26.38084425 30.51444313 28.18282953 30.55761719 29.98486328 C30.62510881 32.75446501 30.70275762 35.52365942 30.78125 38.29296875 C30.82613169 40.04425528 30.87042336 41.79555706 30.9140625 43.546875 C30.93796051 44.37910583 30.96185852 45.21133667 30.98648071 46.06878662 C31.03008859 48.0453819 31.02056561 50.0230307 31 52 C30 53 30 53 26.18359375 53.09765625 C24.60153318 53.09098089 23.01948841 53.07901875 21.4375 53.0625 C20.63119141 53.05798828 19.82488281 53.05347656 18.99414062 53.04882812 C16.99606244 53.03700518 14.99802217 53.01906914 13 53 C12.97494385 52.13310547 12.9498877 51.26621094 12.92407227 50.37304688 C12.82830546 47.12262176 12.72911456 43.87232329 12.62768555 40.62207031 C12.58466974 39.22172048 12.54297507 37.82132936 12.50268555 36.42089844 C12.19311319 25.67551724 12.19311319 25.67551724 11 15 C7.03611362 14.92377142 3.8726592 15.0318352 0 16 C0.495 34.315 0.495 34.315 1 53 C-4.94 53 -10.88 53 -17 53 C-17.14445824 48.14775093 -17.28750661 43.29549742 -17.42724609 38.44311523 C-17.47496958 36.79953774 -17.52344633 35.15598191 -17.57275391 33.51245117 C-17.88739344 23.00413301 -18.07065859 12.513409 -18 2 C-5.94642857 -0.14285714 -5.94642857 -0.14285714 0 0 Z " fill="#FFFFFF" transform="translate(820,111)"/>
<path d="M0 0 C3.62295483 3.17578912 5.3726735 6.22947633 6 11 C6.12552785 14.0076284 6.11643415 17.00973617 6.09765625 20.01953125 C6.0962413 20.87810226 6.09482635 21.73667328 6.09336853 22.6212616 C6.08779057 25.35171049 6.07524214 28.08207607 6.0625 30.8125 C6.05748215 32.6686186 6.05291974 34.5247385 6.04882812 36.38085938 C6.03868112 40.9206305 6.01910145 45.46022246 6 50 C0.39 50 -5.22 50 -11 50 C-11.33 49.34 -11.66 48.68 -12 48 C-12.763125 48.495 -13.52625 48.99 -14.3125 49.5 C-20.31617745 51.94217388 -26.23254689 51.92248437 -32.375 49.875 C-36.0979703 47.2157355 -38.93043557 44.13912885 -41 40 C-41.52839495 33.78119791 -41.72493456 28.26628679 -38 23 C-30.8152696 16.01484545 -21.47897044 14.85372376 -12 13 C-14.33597554 10.299698 -14.76826225 10.02439345 -18.5625 9.625 C-22.88279973 9.76900999 -26.7280638 10.96273435 -30.80078125 12.34375 C-33 13 -33 13 -36 13 C-35.67 8.71 -35.34 4.42 -35 0 C-23.79114957 -3.32114087 -10.73742119 -5.965234 0 0 Z M-17.5 26.375 C-18.2940625 26.63023437 -19.088125 26.88546875 -19.90625 27.1484375 C-22.17029079 27.91122195 -22.17029079 27.91122195 -24 30 C-23.83582968 33.56592619 -23.83582968 33.56592619 -23 37 C-20.2201184 38.3899408 -18.0813674 38.18488204 -15 38 C-13.68 37.34 -12.36 36.68 -11 36 C-11 32.37 -11 28.74 -11 25 C-13.41036522 25 -15.20969479 25.62395836 -17.5 26.375 Z " fill="#FFFFFF" transform="translate(897,114)"/>
<path d="M0 0 C3.82913803 3.44333067 5.81090944 6.85583255 6.12025452 11.99957275 C6.11803391 12.70128601 6.11581329 13.40299927 6.11352539 14.12597656 C6.11344986 14.92650452 6.11337433 15.72703247 6.11329651 16.55181885 C6.10813522 17.40612488 6.10297394 18.26043091 6.09765625 19.140625 C6.0962413 20.02280701 6.09482635 20.90498901 6.09336853 21.81390381 C6.08778001 24.62597065 6.07522961 27.4379573 6.0625 30.25 C6.05748352 32.15885302 6.05292087 34.06770728 6.04882812 35.9765625 C6.03781434 40.65107247 6.02055758 45.32552265 6 50 C0.39 50 -5.22 50 -11 50 C-11.33 49.34 -11.66 48.68 -12 48 C-12.763125 48.495 -13.52625 48.99 -14.3125 49.5 C-20.31617745 51.94217388 -26.23254689 51.92248437 -32.375 49.875 C-36.44666495 46.96666789 -39.38678079 43.83965762 -41 39 C-41.59951246 33.37834218 -41.64103327 28.30040162 -38.35546875 23.5234375 C-31.64457025 15.9809291 -21.42773627 14.91768726 -12 13 C-14.29542858 10.36269908 -14.74168229 10.02818011 -18.4375 9.625 C-24.11769265 9.81610929 -29.55674407 11.47588834 -35 13 C-36.36421031 10.27157939 -35.87807211 8.39046682 -35.5625 5.375 C-35.46066406 4.37210937 -35.35882812 3.36921875 -35.25390625 2.3359375 C-35.12822266 1.17964844 -35.12822266 1.17964844 -35 0 C-23.89053555 -3.47558664 -10.63956714 -5.91087064 0 0 Z M-17.5 26.375 C-18.2940625 26.63023437 -19.088125 26.88546875 -19.90625 27.1484375 C-22.17029079 27.91122195 -22.17029079 27.91122195 -24 30 C-23.83582968 33.56592619 -23.83582968 33.56592619 -23 37 C-20.2201184 38.3899408 -18.0813674 38.18488204 -15 38 C-13.68 37.34 -12.36 36.68 -11 36 C-11 32.37 -11 28.74 -11 25 C-13.41036522 25 -15.20969479 25.62395836 -17.5 26.375 Z " fill="#FFFFFF" transform="translate(659,114)"/>
<path d="M0 0 C3.75492533 3.75492533 5.09507281 6.95132092 5.20532227 12.19604492 C5.2352401 13.45701241 5.2352401 13.45701241 5.26576233 14.74345398 C5.28247482 15.64666885 5.29918732 16.54988373 5.31640625 17.48046875 C5.33718735 18.40845779 5.35796844 19.33644684 5.37937927 20.29255676 C5.44477323 23.2574624 5.50371262 26.22245672 5.5625 29.1875 C5.60569487 31.1972748 5.64930947 33.20704063 5.69335938 35.21679688 C5.80044427 40.14444032 5.90174045 45.07217299 6 50 C0.06 50 -5.88 50 -12 50 C-12 49.34 -12 48.68 -12 48 C-12.928125 48.495 -13.85625 48.99 -14.8125 49.5 C-20.27847156 51.81721715 -26.45242185 52.15639288 -32.12109375 50.30859375 C-36.43327341 48.09222614 -38.92384265 45.31201912 -41 41 C-42.17489159 36.09786614 -42.30262256 32.13483461 -41 27.25 C-36.07748568 19.25091423 -30.51463151 17.2283697 -21.68676758 15.11645508 C-18.35206153 14.37775689 -15.43314126 14 -12 14 C-12.33 12.68 -12.66 11.36 -13 10 C-19.55854782 9.66900787 -24.98322541 9.90510421 -31.125 12.34375 C-33 13 -33 13 -36 13 C-36 9.04 -36 5.08 -36 1 C-25.32976075 -3.90831005 -10.72543966 -5.97695206 0 0 Z M-18.5 26.3125 C-19.2940625 26.55613281 -20.088125 26.79976562 -20.90625 27.05078125 C-23.33477604 27.92933001 -23.33477604 27.92933001 -25 31 C-24.6758631 34.32240324 -24.39223697 35.60776303 -22 38 C-19.81363275 38.06082886 -19.81363275 38.06082886 -17.4375 37.6875 C-16.22900391 37.53861328 -16.22900391 37.53861328 -14.99609375 37.38671875 C-13.00821651 37.19478523 -13.00821651 37.19478523 -12 36 C-11.92773498 34.14712498 -11.9161878 32.29166122 -11.9375 30.4375 C-11.94652344 29.42558594 -11.95554687 28.41367188 -11.96484375 27.37109375 C-11.97644531 26.58863281 -11.98804688 25.80617187 -12 25 C-14.39614906 25 -16.21519947 25.58922711 -18.5 26.3125 Z " fill="#FFFFFF" transform="translate(1532,114)"/>
<path d="M0 0 C3.34344233 2.63955974 4.75551985 4.95727452 6 9 C6.26793169 12.15471782 6.23281047 15.29295272 6.1953125 18.45703125 C6.1924826 19.35999435 6.18965271 20.26295746 6.18673706 21.19328308 C6.17557607 24.06649234 6.15047897 26.93938555 6.125 29.8125 C6.11496493 31.76496944 6.10584 33.71744379 6.09765625 35.66992188 C6.07565008 40.44673566 6.04114831 45.22331431 6 50 C0.39 50 -5.22 50 -11 50 C-11.33 49.34 -11.66 48.68 -12 48 C-12.763125 48.495 -13.52625 48.99 -14.3125 49.5 C-20.31617745 51.94217388 -26.23254689 51.92248437 -32.375 49.875 C-36.44666495 46.96666789 -39.38678079 43.83965762 -41 39 C-41.77770606 32.74502124 -41.34768903 27.86611514 -37.59375 22.68359375 C-31.86778181 16.63483814 -22.87763053 15.3754593 -15 14 C-13.68 14 -12.36 14 -11 14 C-11.87644433 11.82271927 -11.87644433 11.82271927 -14 10 C-21.44107394 9.17321401 -27.83459333 11.02333609 -35 13 C-35 8.71 -35 4.42 -35 0 C-23.6294469 -3.36905277 -10.95389296 -5.78696232 0 0 Z M-17.5 26.3125 C-18.2940625 26.55613281 -19.088125 26.79976562 -19.90625 27.05078125 C-22.33477604 27.92933001 -22.33477604 27.92933001 -24 31 C-23.6758631 34.32240324 -23.39223697 35.60776303 -21 38 C-18.81363275 38.06082886 -18.81363275 38.06082886 -16.4375 37.6875 C-15.22900391 37.53861328 -15.22900391 37.53861328 -13.99609375 37.38671875 C-12.00821651 37.19478523 -12.00821651 37.19478523 -11 36 C-10.92773498 34.14712498 -10.9161878 32.29166122 -10.9375 30.4375 C-10.94652344 29.42558594 -10.95554687 28.41367188 -10.96484375 27.37109375 C-10.97644531 26.58863281 -10.98804688 25.80617187 -11 25 C-13.39614906 25 -15.21519947 25.58922711 -17.5 26.3125 Z " fill="#FFFFFF" transform="translate(451,114)"/>
<path d="M0 0 C5.91587065 4.81819934 8.78629641 10.54123974 10 18 C10.82039085 27.36833421 10.12337816 36.51587114 4 44 C-2.82979301 50.67801983 -9.91843819 51.38314823 -19.07202148 51.29101562 C-25.47083302 51.13091563 -30.04894439 50.66831974 -34.95703125 46.23046875 C-41.71703927 39.02988994 -42.89263648 31.6746464 -43 22 C-42.31920334 13.6683457 -40.30058637 8.30058637 -34.3125 2.3125 C-25.20420357 -4.71131068 -9.98779909 -5.79370377 0 0 Z M-21.1875 9.5625 C-25.43499755 15.27465188 -25.68849407 22.13592271 -25 29 C-23.59303773 35.52236713 -23.59303773 35.52236713 -19 40 C-14.0381134 39.8661832 -14.0381134 39.8661832 -10.125 37.125 C-7.85850995 32.84385212 -7.78429911 28.91649013 -7.75 24.1875 C-7.729375 23.48818359 -7.70875 22.78886719 -7.6875 22.06835938 C-7.65165654 17.27877704 -8.41802408 14.03584554 -11 10 C-14.86982258 7.42011828 -17.27007373 6.76433838 -21.1875 9.5625 Z " fill="#FFFFFF" transform="translate(786,114)"/>
<path d="M0 0 C5.51057478 4.03745083 8.03726073 9.50026049 9.34765625 16.0703125 C9.99802203 20.3168185 9.97265625 24.05143961 9.97265625 28.4453125 C-0.25734375 29.1053125 -10.48734375 29.7653125 -21.02734375 30.4453125 C-17.50339488 36.46848034 -17.50339488 36.46848034 -12.02734375 38.4453125 C-6.37792427 38.91609746 -2.28732469 38.11992468 2.9921875 36.1015625 C4.97265625 35.4453125 4.97265625 35.4453125 7.97265625 35.4453125 C7.64265625 39.7353125 7.31265625 44.0253125 6.97265625 48.4453125 C-2.62293744 52.63248066 -14.65180405 53.39113399 -24.65234375 49.9453125 C-30.45581768 47.11772554 -34.4396213 42.91562014 -37.12109375 37.0546875 C-40.2384939 27.87567593 -40.13146745 18.30386118 -36.02734375 9.4453125 C-28.0736741 -2.38476685 -13.00882245 -6.75231074 0 0 Z M-20.02734375 11.4453125 C-20.68734375 13.7553125 -21.34734375 16.0653125 -22.02734375 18.4453125 C-17.07734375 18.1153125 -12.12734375 17.7853125 -7.02734375 17.4453125 C-7.38313809 11.72624429 -7.38313809 11.72624429 -9.90234375 9.5703125 C-14.01909902 7.39085383 -16.59487375 8.71693891 -20.02734375 11.4453125 Z " fill="#FFFFFF" transform="translate(233.02734375,113.5546875)"/>
<path d="M0 0 C5.43965438 3.41955901 8.49404974 8.47561568 10.2890625 14.54296875 C11.15301657 19.37225049 10.96920995 24.21389064 10.74609375 29.09765625 C0.38915063 29.85979661 -9.86742695 30.23196417 -20.25390625 30.09765625 C-17.93424787 34.9885475 -17.93424787 34.9885475 -14.06640625 38.53515625 C-6.6123687 40.02596376 -1.20273206 38.97303245 5.74609375 36.09765625 C6.73609375 36.09765625 7.72609375 36.09765625 8.74609375 36.09765625 C8.74609375 40.05765625 8.74609375 44.01765625 8.74609375 48.09765625 C-0.58738725 52.97652132 -12.15534877 54.00343774 -22.37890625 50.91015625 C-29.23337339 48.10308876 -33.03270128 43.65937008 -36.25390625 37.09765625 C-38.59262384 30.23638544 -38.41424433 19.350841 -36.12890625 12.53515625 C-32.33924541 5.58744471 -28.65715345 1.41701371 -21.03515625 -1.24609375 C-14.12184807 -2.87732377 -6.57347293 -2.93824674 0 0 Z M-16.87890625 10.72265625 C-19.87873731 13.2623404 -19.87873731 13.2623404 -20.25390625 19.09765625 C-15.30390625 18.76765625 -10.35390625 18.43765625 -5.25390625 18.09765625 C-6.93262945 12.14828792 -6.93262945 12.14828792 -11.25390625 9.09765625 C-14.34331905 8.83447894 -14.34331905 8.83447894 -16.87890625 10.72265625 Z " fill="#FFFFFF" transform="translate(1059.25390625,112.90234375)"/>
<path d="M0 0 C4.64768155 4.00187614 7.8478648 8.953752 9 15 C9.22483713 19.34685121 9.17894585 23.65227868 9 28 C-1.35694312 28.76214036 -11.6135207 29.13430792 -22 29 C-21.505 29.78375 -21.01 30.5675 -20.5 31.375 C-19 34 -19 34 -19 36 C-11.2443836 39.18179134 -4.63107132 38.63138245 3.0546875 35.65625 C5 35 5 35 8 35 C7.96694498 36.93822596 7.89750095 38.87585668 7.8125 40.8125 C7.77769531 41.89144531 7.74289062 42.97039062 7.70703125 44.08203125 C7 47 7 47 4.69921875 48.82421875 C-3.61157938 52.44440722 -15.56421468 52.45420389 -24.25 49.75 C-31.31871139 46.82172842 -35.32648563 42.01643448 -38.25 35 C-40.39075564 26.32126091 -40.12056399 16.02599813 -36 8 C-32.7534994 2.7080851 -28.0544311 -0.71111769 -22.14453125 -2.58984375 C-14.88172524 -3.97890501 -6.41550869 -4.0473679 0 0 Z M-18.75 9.5625 C-21.59674504 12.19959258 -21.59674504 12.19959258 -22 18 C-17.05 17.67 -12.1 17.34 -7 17 C-7.76083331 11.97305364 -7.76083331 11.97305364 -11 9 C-14.43562096 7.64383383 -15.49908804 7.71539093 -18.75 9.5625 Z " fill="#FFFFFF" transform="translate(1415,114)"/>
<path d="M0 0 C5.03633339 3.17728415 8.39976081 8.11255975 10.2890625 13.703125 C11.25628863 18.77899544 10.95767861 23.96083405 10.74609375 29.1015625 C0.38915063 29.86370286 -9.86742695 30.23587042 -20.25390625 30.1015625 C-19.75890625 30.8853125 -19.26390625 31.6690625 -18.75390625 32.4765625 C-17.25390625 35.1015625 -17.25390625 35.1015625 -17.25390625 37.1015625 C-9.24706634 39.77050914 -3.10306534 39.76601978 4.765625 36.7578125 C6.74609375 36.1015625 6.74609375 36.1015625 9.74609375 36.1015625 C9.71303873 38.03978846 9.6435947 39.97741918 9.55859375 41.9140625 C9.52378906 42.99300781 9.48898437 44.07195312 9.453125 45.18359375 C8.74609375 48.1015625 8.74609375 48.1015625 6.4453125 49.92578125 C-1.86548563 53.54596972 -13.81812093 53.55576639 -22.50390625 50.8515625 C-29.57261764 47.92329092 -33.58039188 43.11799698 -36.50390625 36.1015625 C-38.84321482 26.51039735 -37.99224163 16.73915303 -33.25390625 8.1015625 C-26.78008843 -2.53399535 -10.84465838 -4.82485841 0 0 Z M-17.00390625 10.6640625 C-19.85065129 13.30115508 -19.85065129 13.30115508 -20.25390625 19.1015625 C-15.30390625 18.7715625 -10.35390625 18.4415625 -5.25390625 18.1015625 C-6.01473956 13.07461614 -6.01473956 13.07461614 -9.25390625 10.1015625 C-12.68952721 8.74539633 -13.75299429 8.81695343 -17.00390625 10.6640625 Z " fill="#FFFFFF" transform="translate(1277.25390625,112.8984375)"/>
<path d="M0 0 C3.80194529 3.479356 6.58862766 6.46420993 7.9375 11.5 C7.958125 12.325 7.97875 13.15 8 14 C3.03715966 16.37113483 -1.45949887 18.43174347 -7 19 C-7.66 17.02 -8.32 15.04 -9 13 C-12.98677131 12.20159976 -12.98677131 12.20159976 -17 12 C-20.28262332 14.27258538 -21.27677511 16.17918928 -22 20 C-22.41913173 26.364954 -22.14025773 31.98052513 -20 38 C-16.01308629 38.88504645 -16.01308629 38.88504645 -12 39 C-9.12448478 36.79135579 -9.12448478 36.79135579 -7 34 C-6.01 33.34 -5.02 32.68 -4 32 C0.29 34.31 4.58 36.62 9 39 C5.58650519 45.82698962 5.58650519 45.82698962 2.1875 48.75 C1.54167969 49.32234375 0.89585937 49.8946875 0.23046875 50.484375 C-6.66241584 55.16815647 -15.41597846 55.01026706 -23.375 53.5703125 C-29.69413831 51.57089764 -34.12815793 47.35716807 -37.32421875 41.625 C-41.2857051 32.28423219 -41.91334198 20.52326023 -38.11328125 10.99609375 C-34.7793777 5.01846317 -29.93635791 -0.41812167 -23.28125 -2.55078125 C-15.62073751 -4.05927258 -6.66603083 -4.35332626 0 0 Z " fill="#FFFFFF" transform="translate(2103,97)"/>
<path d="M0 0 C29 0 29 0 37 4 C39.94470277 7.12874669 40.21473189 9.84535754 40.375 14 C40.19374448 19.55301008 38.60586772 22.30236841 34.8125 26.3125 C34.214375 26.869375 33.61625 27.42625 33 28 C34.093125 28.556875 35.18625 29.11375 36.3125 29.6875 C39.80822537 31.46834123 41.31466812 33.45674202 43 37 C43.82118478 42.49675939 43.72530457 47.43780554 41.375 52.5 C37.99030059 56.06284148 34.6697782 58.44340727 30 60 C20.1 60 10.2 60 0 60 C0 40.2 0 20.4 0 0 Z M11 8 C11 13.61 11 19.22 11 25 C19.9914473 25.5547567 19.9914473 25.5547567 28 22 C30.18869145 19.33550605 29.99787846 17.93953599 29.875 14.4375 C29.30367102 11.00384895 29.30367102 11.00384895 27.1875 9.125 C22.49453313 6.71147418 15.87647949 5.56176026 11 8 Z M11 33 C11 39.6 11 46.2 11 53 C20.91047656 53.27668908 20.91047656 53.27668908 29.875 49.8125 C32.27611281 46.63455657 33.08293416 44.98083966 33 41 C31.72082927 37.76445051 30.38302283 36.2923069 27.625 34.1875 C22.0501142 32.36124431 16.84877923 32.82095574 11 33 Z " fill="#FFFFFF" transform="translate(491,197)"/>
<path d="M0 0 C0.77085937 -0.00257813 1.54171875 -0.00515625 2.3359375 -0.0078125 C4.625 0.125 4.625 0.125 6.28369141 0.62939453 C9.63848163 1.33953261 12.9640562 1.22941141 16.375 1.1875 C17.07238281 1.18298828 17.76976563 1.17847656 18.48828125 1.17382812 C20.20055803 1.1621002 21.91279033 1.14416653 23.625 1.125 C23.69932654 7.13897009 23.75368588 13.15267096 23.78979492 19.16699219 C23.80485288 21.21163594 23.82530357 23.25624755 23.85131836 25.30078125 C23.88783311 28.24487252 23.90475651 31.18853557 23.91796875 34.1328125 C23.93345261 35.0424173 23.94893646 35.95202209 23.96488953 36.88919067 C23.96664947 43.57221139 22.79982489 47.78706324 18.125 52.8125 C13.97021915 56.04632187 8.762406 57.33462985 3.625 58.125 C-0.42148443 56.77617186 -1.33002599 54.77673931 -3.375 51.125 C-3.045 50.135 -2.715 49.145 -2.375 48.125 C-0.12174597 47.21223369 2.14209989 46.66718478 4.49609375 46.06640625 C6.79730422 45.28999438 6.79730422 45.28999438 7.91015625 43.02734375 C8.14605469 42.39957031 8.38195313 41.77179688 8.625 41.125 C8.06554688 41.44597656 7.50609375 41.76695312 6.9296875 42.09765625 C2.91161286 43.8887641 -1.07096941 43.77094456 -5.375 43.125 C-9.77032202 40.56772173 -12.33938603 37.66358897 -13.90625 32.7578125 C-15.45091256 24.08195777 -15.93307172 12.94909161 -11.375 5.125 C-7.68678463 1.52674111 -5.09380659 -0.01692295 0 0 Z M2.625 13.125 C0.39801265 16.46548103 0.3538079 17.65785581 0.375 21.5625 C0.36984375 22.50996094 0.3646875 23.45742187 0.359375 24.43359375 C0.62751911 27.15052453 1.23968858 28.79965583 2.625 31.125 C5.91575996 30.74595792 5.91575996 30.74595792 8.625 29.125 C8.72475032 26.61363896 8.76382183 24.13596585 8.75 21.625 C8.75386719 20.92246094 8.75773437 20.21992188 8.76171875 19.49609375 C9.06890931 16.02071192 9.06890931 16.02071192 7.625 13.125 C5.16707971 12.79156449 5.16707971 12.79156449 2.625 13.125 Z " fill="#FFFFFF" transform="translate(2301.375,183.875)"/>
<path d="M0 0 C4.23148036 3.1971185 6.46275729 6.98162285 8 12 C8.40469808 14.99277156 8.42081453 17.92137687 8.375 20.9375 C8.38660156 21.69740234 8.39820312 22.45730469 8.41015625 23.24023438 C8.37718114 29.67587613 7.18594748 35.33587651 3 40.4375 C-0.0522977 42.82210757 -2.68155464 43.15583098 -6.4375 43.1875 C-7.58025391 43.20876953 -7.58025391 43.20876953 -8.74609375 43.23046875 C-11 43 -11 43 -15 41 C-15 44.63 -15 48.26 -15 52 C-16.93467942 52.83986084 -18.87285129 53.67168027 -20.8125 54.5 C-21.89144531 54.9640625 -22.97039063 55.428125 -24.08203125 55.90625 C-27 57 -27 57 -30 57 C-30 38.19 -30 19.38 -30 0 C-16 0 -16 0 -14 1 C-13.13375 0.67 -12.2675 0.34 -11.375 0 C-7.24193668 -1.22461135 -4.11631852 -1.30123292 0 0 Z M-15 14 C-15.24890658 16.61055594 -15.3272977 18.96094922 -15.25 21.5625 C-15.24484375 22.26052734 -15.2396875 22.95855469 -15.234375 23.67773438 C-15.47045624 27.12946479 -15.47045624 27.12946479 -14 30 C-12.00041636 30.04080783 -9.99954746 30.04254356 -8 30 C-6.58306243 27.16612485 -6.8300987 24.71970627 -6.8125 21.5625 C-6.79123047 19.83193359 -6.79123047 19.83193359 -6.76953125 18.06640625 C-6.76074912 14.82719832 -6.76074912 14.82719832 -9 12 C-12.18490007 11.7226499 -12.18490007 11.7226499 -15 14 Z " fill="#FFFFFF" transform="translate(2261,108)"/>
<path d="M0 0 C-0.33 3.96 -0.66 7.92 -1 12 C-6.75 10.125 -6.75 10.125 -9 9 C-10.87379605 8.92966231 -12.75001102 8.9156978 -14.625 8.9375 C-16.12933594 8.95103516 -16.12933594 8.95103516 -17.6640625 8.96484375 C-18.82035156 8.98224609 -18.82035156 8.98224609 -20 9 C-20 10.65 -20 12.3 -20 14 C-19.39414062 14.14695313 -18.78828125 14.29390625 -18.1640625 14.4453125 C-11.11136484 16.33326541 -2.89325949 18.67254598 1.36328125 25.0390625 C3.69609982 30.85569383 3.03283456 36.17730804 1 42 C-1.4474501 46.69094603 -5.05960015 48.51422094 -9.88671875 50.2734375 C-19.32190716 52.47537608 -29.11050239 51.80978469 -38 48 C-38 43.71 -38 39.42 -38 35 C-33 36 -33 36 -29.625 37.5625 C-25.73467504 39.10521507 -23.14329981 39.39839421 -19 39 C-18.01 38.34 -17.02 37.68 -16 37 C-16.23661175 35.04377923 -16.23661175 35.04377923 -17 33 C-19.6128733 31.68027755 -22.08816513 30.58978638 -24.8125 29.5625 C-30.17251781 27.53760438 -33.81902891 26.05590116 -37 21 C-38.53752988 16.38741035 -38.86704551 11.67948401 -37.3515625 6.99609375 C-34.91741435 2.17980917 -31.8348951 0.24477272 -27 -2 C-18.20842766 -4.86059837 -8.34533941 -3.45324389 0 0 Z " fill="#FFFFFF" transform="translate(321,114)"/>
<path d="M0 0 C1.15242187 0.00902344 2.30484375 0.01804687 3.4921875 0.02734375 C4.36101562 0.03894531 5.22984375 0.05054687 6.125 0.0625 C6.91798919 2.895469 7.70942272 5.72885785 8.5 8.5625 C8.72171875 9.35398437 8.9434375 10.14546875 9.171875 10.9609375 C13.42705987 26.22954204 13.42705987 26.22954204 13.125 31.0625 C13.785 31.0625 14.445 31.0625 15.125 31.0625 C15.22683594 29.99 15.32867187 28.9175 15.43359375 27.8125 C16.14794796 22.0976663 17.69033772 16.61346362 19.1875 11.0625 C19.46916016 10.00160156 19.75082031 8.94070312 20.04101562 7.84765625 C20.73102164 5.25136244 21.42736731 2.6567549 22.125 0.0625 C27.405 0.0625 32.685 0.0625 38.125 0.0625 C36.17020683 6.64229726 34.14635132 13.19143564 32.0234375 19.71875 C31.74150543 20.58769897 31.45957336 21.45664795 31.1690979 22.35192871 C30.5797716 24.16709542 29.98987187 25.98207604 29.39941406 27.796875 C28.49343532 30.58268585 27.59038148 33.369434 26.6875 36.15625 C26.11215461 37.92714034 25.53663998 39.69797571 24.9609375 41.46875 C24.69115082 42.30200806 24.42136414 43.13526611 24.1434021 43.99377441 C22.23967161 49.83315678 22.23967161 49.83315678 21.125 52.0625 C15.185 52.0625 9.245 52.0625 3.125 52.0625 C0.84260731 45.12199272 -1.43595878 38.18024569 -3.7109375 31.23730469 C-4.48591905 28.87400106 -5.26195797 26.5110439 -6.0390625 24.1484375 C-7.15380456 20.75871165 -8.26477787 17.36777101 -9.375 13.9765625 C-9.72498047 12.91506989 -10.07496094 11.85357727 -10.43554688 10.75991821 C-10.75587891 9.77905243 -11.07621094 8.79818665 -11.40625 7.78759766 C-11.69048828 6.92155914 -11.97472656 6.05552063 -12.26757812 5.16323853 C-12.875 3.0625 -12.875 3.0625 -12.875 1.0625 C-8.52167264 0.22226812 -4.43057481 -0.04520995 0 0 Z " fill="#FFFFFF" transform="translate(156.875,111.9375)"/>
<path d="M0 0 C1.43352212 0.00015908 2.86704998 0.00585132 4.30053711 0.01586914 C5.43041298 0.01799156 5.43041298 0.01799156 6.58311462 0.02015686 C8.99807646 0.02577163 11.41294687 0.03832656 13.82788086 0.05102539 C15.46134307 0.05603849 17.09480672 0.06060173 18.72827148 0.06469727 C22.74067671 0.07574585 26.75301326 0.09302033 30.76538086 0.11352539 C30.81937822 1.57145423 30.85817263 3.02995251 30.89038086 4.48852539 C30.91358398 5.30063477 30.93678711 6.11274414 30.96069336 6.94946289 C30.76538086 9.11352539 30.76538086 9.11352539 28.76538086 11.11352539 C26.88598633 11.34057617 26.88598633 11.34057617 24.63256836 11.30883789 C23.42407227 11.29916992 23.42407227 11.29916992 22.19116211 11.28930664 C21.3494043 11.27254883 20.50764648 11.25579102 19.64038086 11.23852539 C18.36614258 11.22499023 18.36614258 11.22499023 17.06616211 11.21118164 C14.96578202 11.18758186 12.86554642 11.15171022 10.76538086 11.11352539 C10.76538086 14.41352539 10.76538086 17.71352539 10.76538086 21.11352539 C16.70538086 21.11352539 22.64538086 21.11352539 28.76538086 21.11352539 C28.86303711 28.82836914 28.86303711 28.82836914 28.76538086 31.11352539 C27.76538086 32.11352539 27.76538086 32.11352539 23.94897461 32.21118164 C22.36691404 32.20450628 20.78486927 32.19254415 19.20288086 32.17602539 C18.39657227 32.17151367 17.59026367 32.16700195 16.75952148 32.16235352 C14.7614433 32.15053057 12.76340303 32.13259453 10.76538086 32.11352539 C11.09538086 35.74352539 11.42538086 39.37352539 11.76538086 43.11352539 C13.1253418 43.10192383 14.48530273 43.09032227 15.88647461 43.07836914 C17.65860866 43.06899277 19.43074419 43.05989241 21.20288086 43.05102539 C22.10071289 43.04264648 22.99854492 43.03426758 23.92358398 43.02563477 C24.77758789 43.02241211 25.6315918 43.01918945 26.51147461 43.01586914 C27.30223389 43.01063232 28.09299316 43.00539551 28.90771484 43 C30.76538086 43.11352539 30.76538086 43.11352539 31.76538086 44.11352539 C32.00418683 51.63591345 32.00418683 51.63591345 30.76538086 54.11352539 C19.21538086 54.11352539 7.66538086 54.11352539 -4.23461914 54.11352539 C-4.25752136 46.583784 -4.27745052 39.05416248 -4.28955078 31.52441406 C-4.29459284 28.96060782 -4.30142628 26.39680448 -4.31005859 23.83300781 C-4.32212978 20.15697518 -4.32784856 16.48098041 -4.33227539 12.80493164 C-4.33743668 11.65078262 -4.34259796 10.49663361 -4.34791565 9.30751038 C-4.34799118 8.24648605 -4.34806671 7.18546173 -4.34814453 6.09228516 C-4.35036514 5.15296646 -4.35258575 4.21364777 -4.35487366 3.24586487 C-4.15792763 -0.24635971 -3.59600318 0.12620888 0 0 Z " fill="#FFFFFF" transform="translate(2177.234619140625,22.886474609375)"/>
<path d="M0 0 C11.55 0 23.1 0 35 0 C35 9 35 9 34 11 C27.73 11 21.46 11 15 11 C15 14.3 15 17.6 15 21 C20.94 21 26.88 21 33 21 C33.09765625 28.71484375 33.09765625 28.71484375 33 31 C32 32 32 32 28.18359375 32.09765625 C26.60153318 32.09098089 25.01948841 32.07901875 23.4375 32.0625 C22.63119141 32.05798828 21.82488281 32.05347656 20.99414062 32.04882812 C18.99606244 32.03700518 16.99802217 32.01906914 15 32 C15 35.96 15 39.92 15 44 C16.3303125 43.7525 16.3303125 43.7525 17.6875 43.5 C23.39847597 42.67573543 29.24621563 42.71648019 35 43 C36 44 36 44 36.125 47.375 C36 51 36 51 35 54 C23.45 54 11.9 54 0 54 C0 36.18 0 18.36 0 0 Z " fill="#FFFFFF" transform="translate(2090,23)"/>
<path d="M0 0 C11.22 0 22.44 0 34 0 C34 3.63 34 7.26 34 11 C27.4 11 20.8 11 14 11 C14 14.3 14 17.6 14 21 C15.28777344 20.98839844 16.57554687 20.97679688 17.90234375 20.96484375 C19.58072772 20.9554673 21.25911326 20.94636695 22.9375 20.9375 C24.21270508 20.92493164 24.21270508 20.92493164 25.51367188 20.91210938 C26.32255859 20.90888672 27.13144531 20.90566406 27.96484375 20.90234375 C28.7137085 20.89710693 29.46257324 20.89187012 30.23413086 20.88647461 C32 21 32 21 33 22 C32.9140625 24.03125 32.9140625 24.03125 32.625 26.5 C32.48964844 27.72203125 32.48964844 27.72203125 32.3515625 28.96875 C32 31 32 31 31 32 C28.13732433 32.07325168 25.299281 32.09238205 22.4375 32.0625 C21.63119141 32.05798828 20.82488281 32.05347656 19.99414062 32.04882812 C17.99606244 32.03700518 15.99802217 32.01906914 14 32 C14.33 35.63 14.66 39.26 15 43 C21.6 43 28.2 43 35 43 C35 46.63 35 50.26 35 54 C23.45 54 11.9 54 0 54 C0 36.18 0 18.36 0 0 Z " fill="#FFFFFF" transform="translate(2132,23)"/>
<path d="M0 0 C-0.33 4.29 -0.66 8.58 -1 13 C-5 12 -5 12 -6.89453125 11.359375 C-10.79899097 10.11885419 -12.7271179 9.92842437 -16.8125 11 C-20.6587204 13.41331476 -21.66208724 14.67145872 -23 19 C-23.68748137 24.95494426 -23.54219796 29.9397172 -20 35 C-15.79431017 37.61289666 -11.80743298 37.43175564 -7 37 C-3.58528076 36.11539972 -3.58528076 36.11539972 -1 35 C-0.67 35.33 -0.34 35.66 0 36 C-0.09017996 38.19050021 -0.24666208 40.378466 -0.4375 42.5625 C-0.53933594 43.76003906 -0.64117188 44.95757812 -0.74609375 46.19140625 C-0.82988281 47.11824219 -0.91367187 48.04507813 -1 49 C-10.71243064 51.93205453 -20.62144103 52.35488642 -30 48 C-35.71057282 44.44938477 -39.2098531 40.1705661 -41.375 33.80078125 C-43.42365123 24.62026291 -42.69149803 15.24965664 -38 7 C-28.54042036 -4.42683735 -13.12627596 -6.30061246 0 0 Z " fill="#FFFFFF" transform="translate(713,114)"/>
<path d="M0 0 C0 22.44 0 44.88 0 68 C-4.66666667 68 -9.33333333 68 -14 68 C-15.485 68.495 -15.485 68.495 -17 69 C-23.00909059 69.53781878 -27.85704445 69.46850491 -33 66 C-38.24591251 61.60807325 -40.61435701 57.48350043 -41.35546875 50.7890625 C-41.70906734 41.97776798 -40.48562074 35.08691039 -34.54296875 28.34765625 C-29.21718943 23.49965133 -23.58804881 22.74362172 -16.625 22.875 C-15.37976563 22.89304688 -14.13453125 22.91109375 -12.8515625 22.9296875 C-11.91054688 22.95289063 -10.96953125 22.97609375 -10 23 C-10.165 21.7625 -10.33 20.525 -10.5 19.25 C-11.15112429 13.49993057 -11.08800414 7.7789386 -11 2 C-3.375 0 -3.375 0 0 0 Z M-27.9375 35.9375 C-31.21187866 40.79945619 -31.63047524 45.15684551 -31 51 C-29.43624654 55.14394666 -27.90409475 57.81829999 -24 60 C-20.39579319 61.40163598 -18.30261936 60.87633783 -14.828125 59.5078125 C-14.11043945 59.22824707 -13.39275391 58.94868164 -12.65332031 58.66064453 C-11.83492676 58.33362549 -11.83492676 58.33362549 -11 58 C-10.97113662 53.52084672 -10.95324813 49.04171709 -10.9375 44.5625 C-10.92912109 43.28310547 -10.92074219 42.00371094 -10.91210938 40.68554688 C-10.90888672 39.47060547 -10.90566406 38.25566406 -10.90234375 37.00390625 C-10.89710693 35.87799072 -10.89187012 34.7520752 -10.88647461 33.59204102 C-10.70454552 31.07029129 -10.70454552 31.07029129 -12 30 C-18.01881432 29.27044675 -23.95470324 31.37748632 -27.9375 35.9375 Z " fill="#FFFFFF" transform="translate(338,189)"/>
<path d="M0 0 C5.22538756 5.22538756 5.74824737 11.57556766 5.890625 18.75 C5.88009204 21.35427557 5.85371022 23.9585292 5.8125 26.5625 C5.80601311 27.9101507 5.80079547 29.25780814 5.796875 30.60546875 C5.71693538 40.40806462 5.71693538 40.40806462 4.5625 41.5625 C2.20936445 41.63521741 -0.14583668 41.64620868 -2.5 41.625 C-3.79035156 41.61597656 -5.08070313 41.60695312 -6.41015625 41.59765625 C-7.40917969 41.58605469 -8.40820312 41.57445312 -9.4375 41.5625 C-9.45731934 40.82612305 -9.47713867 40.08974609 -9.49755859 39.33105469 C-9.59287828 35.99117944 -9.70252996 32.65192361 -9.8125 29.3125 C-9.8434375 28.15363281 -9.874375 26.99476563 -9.90625 25.80078125 C-9.94492188 24.68574219 -9.98359375 23.57070312 -10.0234375 22.421875 C-10.0548584 21.39545898 -10.0862793 20.36904297 -10.11865234 19.31152344 C-10.43386625 16.59382927 -11.04782351 14.89325565 -12.4375 12.5625 C-13.7575 12.5625 -15.0775 12.5625 -16.4375 12.5625 C-17.80589363 15.29928725 -17.65384818 17.60514424 -17.75390625 20.6640625 C-17.79580078 21.87578125 -17.83769531 23.0875 -17.88085938 24.3359375 C-17.92017578 25.60695312 -17.95949219 26.87796875 -18 28.1875 C-18.04318359 29.46625 -18.08636719 30.745 -18.13085938 32.0625 C-18.23719886 35.22905348 -18.33922833 38.39568753 -18.4375 41.5625 C-20.74993792 41.58935412 -23.0624627 41.60882841 -25.375 41.625 C-26.66277344 41.63660156 -27.95054687 41.64820313 -29.27734375 41.66015625 C-32.4375 41.5625 -32.4375 41.5625 -33.4375 40.5625 C-33.52621273 37.53272196 -33.5526935 34.52582978 -33.53515625 31.49609375 C-33.5337413 30.58747086 -33.53232635 29.67884796 -33.53086853 28.74269104 C-33.52525193 25.82842779 -33.51269665 22.91424019 -33.5 20 C-33.49498714 18.02929798 -33.49042386 16.05859476 -33.48632812 14.08789062 C-33.47527711 9.24606441 -33.45800138 4.40429505 -33.4375 -0.4375 C-31.64892578 -0.42009766 -31.64892578 -0.42009766 -29.82421875 -0.40234375 C-28.25781406 -0.39296408 -26.69140769 -0.38386407 -25.125 -0.375 C-23.94647461 -0.36243164 -23.94647461 -0.36243164 -22.74414062 -0.34960938 C-21.6081543 -0.34477539 -21.6081543 -0.34477539 -20.44921875 -0.33984375 C-19.40447388 -0.33198853 -19.40447388 -0.33198853 -18.33862305 -0.32397461 C-2.96939431 -1.24174671 -2.96939431 -1.24174671 0 0 Z " fill="#FFFFFF" transform="translate(2125.4375,185.4375)"/>
<path d="M0 0 C1.2684375 0.7425 1.2684375 0.7425 2.5625 1.5 C2.2325 5.13 1.9025 8.76 1.5625 12.5 C-3.4375 11.5 -3.4375 11.5 -5.6875 10.375 C-9.71217794 9.09442066 -13.32389487 9.8368044 -17.4375 10.5 C-17.58902495 12.86796483 -17.58902495 12.86796483 -16.4375 15.5 C-13.85773152 17.35608911 -11.00624043 18.61407075 -8.125 19.9375 C-2.37475288 22.58961564 1.70589458 24.50937604 4.5625 30.5 C5.51767659 36.28724639 5.380326 41.70707376 2.9375 47.0625 C-2.33246263 52.47114585 -6.89242577 54.62766213 -14.40234375 54.734375 C-15.15644531 54.73953125 -15.91054687 54.7446875 -16.6875 54.75 C-17.42613281 54.770625 -18.16476563 54.79125 -18.92578125 54.8125 C-24.17474722 54.84952974 -27.74508936 53.8586191 -32.4375 51.5 C-32.46448189 49.87509046 -32.48388757 48.25005367 -32.5 46.625 C-32.51160156 45.72007812 -32.52320312 44.81515625 -32.53515625 43.8828125 C-32.4375 41.5 -32.4375 41.5 -31.4375 39.5 C-30.509375 39.933125 -30.509375 39.933125 -29.5625 40.375 C-24.29824085 42.27013329 -18.95879211 43.96309447 -13.375 42.9375 C-11.1885898 41.61122486 -11.1885898 41.61122486 -10.625 38.875 C-10.563125 38.09125 -10.50125 37.3075 -10.4375 36.5 C-14.61163896 33.82718623 -18.79273403 31.29577327 -23.1875 29 C-27.9151215 26.40795925 -30.70412024 23.70013928 -32.4375 18.5 C-32.85829469 13.02966903 -32.07620885 9.3224679 -29.4375 4.5 C-21.97451367 -2.76659195 -9.5287098 -4.12845538 0 0 Z " fill="#FFFFFF" transform="translate(2097.4375,246.5)"/>
<path d="M0 0 C3.28482294 2.3463021 4.12773674 4.13332643 5.625 7.875 C5.87213645 10.63407028 5.97766646 13.15047925 5.91796875 15.8984375 C5.91372391 16.64461334 5.90947906 17.39078918 5.90510559 18.15957642 C5.88842382 20.52343098 5.85079339 22.88640676 5.8125 25.25 C5.79743949 26.8606647 5.78375348 28.47134287 5.77148438 30.08203125 C5.73855504 34.01335515 5.68684762 37.94402901 5.625 41.875 C3.31256208 41.90185412 1.0000373 41.92132841 -1.3125 41.9375 C-2.60027344 41.94910156 -3.88804687 41.96070313 -5.21484375 41.97265625 C-8.375 41.875 -8.375 41.875 -9.375 40.875 C-9.53325258 38.87717874 -9.62619171 36.87411166 -9.69140625 34.87109375 C-9.73330078 33.65615234 -9.77519531 32.44121094 -9.81835938 31.18945312 C-9.85767578 29.91005859 -9.89699219 28.63066406 -9.9375 27.3125 C-9.98068359 26.02923828 -10.02386719 24.74597656 -10.06835938 23.42382812 C-10.174848 20.24100147 -10.27685962 17.05809326 -10.375 13.875 C-12.03114657 13.49281233 -13.69957024 13.16104898 -15.375 12.875 C-17.20719646 14.70719646 -16.61401328 17.63213741 -16.69140625 20.09765625 C-16.73330078 21.35771484 -16.77519531 22.61777344 -16.81835938 23.91601562 C-16.85817596 25.25650736 -16.89788814 26.5970022 -16.9375 27.9375 C-16.98068042 29.28191523 -17.02429456 30.6263166 -17.06835938 31.97070312 C-17.17485283 35.27200013 -17.2754675 38.57348579 -17.375 41.875 C-22.325 41.875 -27.275 41.875 -32.375 41.875 C-32.375 28.015 -32.375 14.155 -32.375 -0.125 C-26.765 -0.125 -21.155 -0.125 -15.375 -0.125 C-10.15042 -1.86652667 -5.21306607 -1.73768869 0 0 Z " fill="#FFFFFF" transform="translate(2409.375,185.125)"/>
<path d="M0 0 C1.1859375 0.00257812 2.371875 0.00515625 3.59375 0.0078125 C4.7796875 0.00523438 5.965625 0.00265625 7.1875 0 C10.09375 0.1328125 10.09375 0.1328125 11.09375 1.1328125 C11.23969886 3.0344735 11.32109004 4.94116488 11.375 6.84765625 C11.41238281 8.00845703 11.44976563 9.16925781 11.48828125 10.36523438 C11.52308594 11.58791016 11.55789062 12.81058594 11.59375 14.0703125 C11.66243002 16.47538513 11.73514064 18.88034714 11.8125 21.28515625 C11.84279297 22.35757568 11.87308594 23.42999512 11.90429688 24.53491211 C11.92670547 27.11620292 11.92670547 27.11620292 13.09375 29.1328125 C14.74375 28.8028125 16.39375 28.4728125 18.09375 28.1328125 C18.11880615 27.32013916 18.1438623 26.50746582 18.16967773 25.67016602 C18.28524118 22.01170498 18.40814584 18.35352722 18.53125 14.6953125 C18.57056641 13.41591797 18.60988281 12.13652344 18.65039062 10.81835938 C18.69228516 9.60341797 18.73417969 8.38847656 18.77734375 7.13671875 C18.81400146 6.01080322 18.85065918 4.8848877 18.88842773 3.72485352 C19.09375 1.1328125 19.09375 1.1328125 20.09375 0.1328125 C24.71375 0.1328125 29.33375 0.1328125 34.09375 0.1328125 C34.09375 13.9928125 34.09375 27.8528125 34.09375 42.1328125 C28.48375 42.1328125 22.87375 42.1328125 17.09375 42.1328125 C16.10375 42.6278125 16.10375 42.6278125 15.09375 43.1328125 C10.52441001 43.55335353 6.41270005 43.69406784 2.15625 41.8828125 C-0.9708859 39.22948507 -2.6071853 37.03000659 -3.90625 33.1328125 C-4.00215036 30.71503782 -4.03699263 28.29467498 -4.0390625 25.875 C-4.04001923 25.17134308 -4.04097595 24.46768616 -4.04196167 23.7427063 C-4.04264125 22.25832021 -4.04080245 20.77393113 -4.03662109 19.28955078 C-4.03125367 17.00937292 -4.03658171 14.72939061 -4.04296875 12.44921875 C-4.04230824 11.00781206 -4.04102765 9.5664055 -4.0390625 8.125 C-4.03793457 6.80870605 -4.03680664 5.49241211 -4.03564453 4.13623047 C-3.86505529 0.17662887 -3.86505529 0.17662887 0 0 Z " fill="#FFFFFF" transform="translate(2279.90625,107.8671875)"/>
<path d="M0 0 C4.14032318 4.51671619 4.34541387 9.05026291 4.2578125 14.95703125 C4.2549826 15.68242599 4.25215271 16.40782074 4.24923706 17.15519714 C4.23809799 19.45780368 4.21300566 21.76001227 4.1875 24.0625 C4.17746206 25.62955165 4.16833763 27.19660943 4.16015625 28.76367188 C4.139886 32.59272225 4.1007271 36.42091896 4.0625 40.25 C-0.8875 40.25 -5.8375 40.25 -10.9375 40.25 C-11.2675 30.68 -11.5975 21.11 -11.9375 11.25 C-13.9175 11.25 -15.8975 11.25 -17.9375 11.25 C-18.2675 20.82 -18.5975 30.39 -18.9375 40.25 C-23.8875 40.25 -28.8375 40.25 -33.9375 40.25 C-33.9375 26.39 -33.9375 12.53 -33.9375 -1.75 C-27.9375 -1.75 -21.9375 -1.75 -15.9375 -1.75 C-15.30714844 -1.91886719 -14.67679688 -2.08773437 -14.02734375 -2.26171875 C-9.10280549 -3.4123118 -4.29182037 -2.55682916 0 0 Z " fill="#FFFFFF" transform="translate(2540.9375,109.75)"/>
<path d="M0 0 C0 25.41 0 50.82 0 77 C-5.94 77 -11.88 77 -18 77 C-18 52.25 -18 27.5 -18 2 C-2 -1 -2 -1 0 0 Z " fill="#FFFFFF" transform="translate(929,87)"/>
<path d="M0 0 C4.72284898 4.34999248 5.24559226 9.04338024 5.50439453 15.33129883 C5.50608643 16.97134888 5.50608643 16.97134888 5.5078125 18.64453125 C5.50974609 20.43600586 5.50974609 20.43600586 5.51171875 22.26367188 C5.50785156 23.49666016 5.50398438 24.72964844 5.5 26 C5.50580078 27.87848633 5.50580078 27.87848633 5.51171875 29.79492188 C5.51042969 30.98279297 5.50914062 32.17066406 5.5078125 33.39453125 C5.50668457 34.4822583 5.50555664 35.56998535 5.50439453 36.69067383 C5.375 39.1875 5.375 39.1875 4.375 40.1875 C1.00395369 40.24783192 -2.35229477 40.20767057 -5.72265625 40.1484375 C-8.96804525 40.11296877 -11.52144304 40.15298101 -14.625 41.1875 C-18.89881146 41.6036764 -22.52912539 41.66396722 -26.5 39.9375 C-30.18800335 36.90032077 -32.35359685 33.97460157 -32.828125 29.1015625 C-32.94952174 23.1733551 -32.04443082 20.01016929 -28.125 15.4375 C-24.75976307 12.6331359 -21.09697569 13.08381707 -16.9375 13.125 C-15.16826172 13.13853516 -15.16826172 13.13853516 -13.36328125 13.15234375 C-12.45964844 13.16394531 -11.55601562 13.17554687 -10.625 13.1875 C-10.955 12.1975 -11.285 11.2075 -11.625 10.1875 C-16.75083611 10.08498328 -21.57497778 10.15159801 -26.625 11.1875 C-29.70192308 5.89519231 -29.70192308 5.89519231 -29.3125 2.3125 C-28.9721875 1.260625 -28.9721875 1.260625 -28.625 0.1875 C-20.10488631 -2.92961476 -8.23029917 -5.13635378 0 0 Z M-18.625 24.1875 C-18.24595792 27.47825996 -18.24595792 27.47825996 -16.625 30.1875 C-14.28555264 29.90019945 -11.9510857 29.56813221 -9.625 29.1875 C-9.625 27.2075 -9.625 25.2275 -9.625 23.1875 C-13.40397651 22.1377843 -15.27419071 22.07773119 -18.625 24.1875 Z " fill="#FFFFFF" transform="translate(2584.625,109.8125)"/>
<path d="M0 0 C6.05190082 6.20707776 5.76342282 14.36173449 5.70117188 22.59960938 C5.67603516 23.90736328 5.65089844 25.21511719 5.625 26.5625 C5.60991956 27.91860486 5.59623712 29.27472602 5.58398438 30.63085938 C5.54885836 33.92099602 5.4996664 37.21028183 5.4375 40.5 C4.24511719 40.48839844 3.05273438 40.47679687 1.82421875 40.46484375 C0.25781406 40.45546408 -1.30859231 40.44636407 -2.875 40.4375 C-4.05352539 40.42493164 -4.05352539 40.42493164 -5.25585938 40.41210938 C-6.3918457 40.40727539 -6.3918457 40.40727539 -7.55078125 40.40234375 C-8.59552612 40.39448853 -8.59552612 40.39448853 -9.66137695 40.38647461 C-11.78747968 40.43104009 -11.78747968 40.43104009 -14.5625 41.5 C-18.83631146 41.9161764 -22.46662539 41.97646722 -26.4375 40.25 C-30.12550335 37.21282077 -32.29109685 34.28710157 -32.765625 29.4140625 C-32.88702174 23.4858551 -31.98193082 20.32266929 -28.0625 15.75 C-24.69726307 12.9456359 -21.03447569 13.39631707 -16.875 13.4375 C-15.10576172 13.45103516 -15.10576172 13.45103516 -13.30078125 13.46484375 C-12.39714844 13.47644531 -11.49351562 13.48804687 -10.5625 13.5 C-10.5625 12.51 -10.5625 11.52 -10.5625 10.5 C-16.00943314 10.40311779 -21.20154667 10.37137825 -26.5625 11.5 C-29.63942308 6.20769231 -29.63942308 6.20769231 -29.25 2.625 C-28.9096875 1.573125 -28.9096875 1.573125 -28.5625 0.5 C-19.28902896 -2.89273331 -9.27515064 -3.90532659 0 0 Z M-17.5625 23.5 C-18.24208603 25.89719432 -18.24208603 25.89719432 -18.5625 28.5 C-17.9025 29.16 -17.2425 29.82 -16.5625 30.5 C-12.96570934 30.17673447 -12.96570934 30.17673447 -9.5625 29.5 C-9.5625 27.52 -9.5625 25.54 -9.5625 23.5 C-12.84946233 22.70046862 -14.27273192 22.40341064 -17.5625 23.5 Z " fill="#FFFFFF" transform="translate(2388.5625,109.5)"/>
<path d="M0 0 C5.38728167 4.61767 8.19948701 8.79500796 8.8828125 15.94921875 C9.1570389 23.08824598 8.2583045 29.021478 4.625 35.25 C0.09809539 39.89297908 -4.77792991 41.54099515 -11.1875 41.625 C-16.71267521 41.50282168 -21.05234306 40.85221411 -25.375 37.25 C-31.46411276 29.82128244 -32.01354031 22.6232898 -31.375 13.25 C-30.34969963 7.58733191 -27.8724063 3.93642387 -23.3203125 0.44140625 C-16.18981772 -3.92566384 -7.33141679 -3.80147537 0 0 Z M-13.375 10.25 C-16.66794276 13.89575805 -16.7000688 17.39510031 -16.67578125 22.06640625 C-16.33867016 24.51374517 -15.67129359 26.15386569 -14.375 28.25 C-12.48649645 29.32642709 -12.48649645 29.32642709 -10.375 29.25 C-7.88884442 27.40840327 -7.37343096 26.24529289 -6.375 23.25 C-5.90145536 16.21116895 -5.90145536 16.21116895 -9.375 10.25 C-10.695 10.25 -12.015 10.25 -13.375 10.25 Z " fill="#FFFFFF" transform="translate(2491.375,109.75)"/>
<path d="M0 0 C5.56667618 5.56667618 7.05713845 10.73409337 7.3125 18.4375 C7.16828198 25.00843352 5.87857868 29.71524215 1.6875 34.8125 C-4.12561022 39.54410134 -8.61487237 40.5537814 -16.0234375 40.3515625 C-21.65985693 39.68584367 -25.39986735 37.60013265 -29.375 33.625 C-33.90645343 26.30495984 -34.05328075 17.90794746 -32.5703125 9.58984375 C-30.91480377 4.2860843 -27.70515574 0.8758968 -23 -2 C-15.49919878 -5.31501805 -6.81414109 -4.49113844 0 0 Z M-15 9 C-18.29294276 12.64575805 -18.3250688 16.14510031 -18.30078125 20.81640625 C-17.96367016 23.26374517 -17.29629359 24.90386569 -16 27 C-14.11149645 28.07642709 -14.11149645 28.07642709 -12 28 C-9.51384442 26.15840327 -8.99843096 24.99529289 -8 22 C-7.52645536 14.96116895 -7.52645536 14.96116895 -11 9 C-12.32 9 -13.64 9 -15 9 Z " fill="#FFFFFF" transform="translate(2148,111)"/>
<path d="M0 0 C12.21 0 24.42 0 37 0 C37 2.64 37 5.28 37 8 C28.42 8 19.84 8 11 8 C11 13.61 11 19.22 11 25 C18.92 25 26.84 25 35 25 C35 27.64 35 30.28 35 33 C27.08 33 19.16 33 11 33 C11 39.27 11 45.54 11 52 C19.58 52 28.16 52 37 52 C37 54.64 37 57.28 37 60 C24.79 60 12.58 60 0 60 C0 40.2 0 20.4 0 0 Z " fill="#FFFFFF" transform="translate(112,197)"/>
<path d="M0 0 C6.27 0 12.54 0 19 0 C19 22.77 19 45.54 19 69 C12.73 69 6.46 69 0 69 C0 46.23 0 23.46 0 0 Z " fill="#FFFFFF" transform="translate(1106,95)"/>
<path d="M0 0 C5.07823945 3.62731389 8.3508715 7.73601722 9.625 13.875 C9.625 17.505 9.625 21.135 9.625 24.875 C2.035 24.875 -5.555 24.875 -13.375 24.875 C-11.8785421 29.03779367 -11.8785421 29.03779367 -8.8125 29.75 C-4.42109491 29.90968746 -0.59571221 29.00990262 3.625 27.875 C4.49158615 29.13739712 5.34292059 30.41027501 6.1875 31.6875 C6.66316406 32.39519531 7.13882813 33.10289062 7.62890625 33.83203125 C8.625 35.875 8.625 35.875 7.625 38.875 C1.09233236 42.64943019 -6.4958151 43.5741515 -13.9375 42.5078125 C-19.72310771 40.92458877 -23.24857381 37.96206635 -26.375 32.875 C-29.55113469 25.36777256 -29.45961542 17.04678849 -26.6875 9.4375 C-24.48301826 4.53951417 -21.94588069 2.06522254 -17.0546875 -0.19921875 C-11.49355114 -2.12048598 -5.53750277 -1.84583426 0 0 Z M-11.5625 10.8125 C-12.160625 11.163125 -12.75875 11.51375 -13.375 11.875 C-13.375 12.865 -13.375 13.855 -13.375 14.875 C-10.405 14.875 -7.435 14.875 -4.375 14.875 C-5.035 13.555 -5.695 12.235 -6.375 10.875 C-9.26686786 9.54195302 -9.26686786 9.54195302 -11.5625 10.8125 Z " fill="#FFFFFF" transform="translate(2490.375,185.125)"/>
<path d="M0 0 C5.56196843 3.97283459 8.39424685 8.16180098 9.625 14.875 C9.625 18.175 9.625 21.475 9.625 24.875 C2.035 25.205 -5.555 25.535 -13.375 25.875 C-12.055 27.195 -10.735 28.515 -9.375 29.875 C-6.49296767 29.73776037 -4.14583927 29.47854915 -1.375 28.875 C-0.385 28.689375 0.605 28.50375 1.625 28.3125 C2.285 28.168125 2.945 28.02375 3.625 27.875 C4.49158615 29.13739712 5.34292059 30.41027501 6.1875 31.6875 C6.66316406 32.39519531 7.13882813 33.10289062 7.62890625 33.83203125 C8.625 35.875 8.625 35.875 7.625 38.875 C1.09233236 42.64943019 -6.4958151 43.5741515 -13.9375 42.5078125 C-19.72310771 40.92458877 -23.24857381 37.96206635 -26.375 32.875 C-29.29917455 25.96331469 -29.58899814 17.62270499 -27.125 10.5 C-25.04361976 5.78798641 -22.81469109 2.72706208 -18.3125 0.0625 C-12.40426051 -2.16582308 -5.92358883 -1.97452961 0 0 Z M-12.625 11.75 C-14.48095121 13.54484847 -14.48095121 13.54484847 -14.375 14.875 C-11.075 14.875 -7.775 14.875 -4.375 14.875 C-5.8757211 10.90897946 -5.8757211 10.90897946 -8.25 9.875 C-10.59106223 9.64826803 -10.59106223 9.64826803 -12.625 11.75 Z " fill="#FFFFFF" transform="translate(2360.375,185.125)"/>
<path d="M0 0 C0.15178302 9.05638678 -0.30962574 17.97582223 -1 27 C-0.48953125 26.71125 0.0209375 26.4225 0.546875 26.125 C6.93348693 22.86375136 12.87339898 21.79536148 20 23 C23.21987542 24.65262545 25.35830609 26.71661217 27 30 C28.21502458 38.01236491 28.11432776 45.97338322 28.0625 54.0625 C28.05747314 55.41861813 28.05291234 56.77473808 28.04882812 58.13085938 C28.03712079 61.42061994 28.02072211 64.71028594 28 68 C24.7 68 21.4 68 18 68 C17.98018066 67.11739502 17.96036133 66.23479004 17.93994141 65.32543945 C17.86162134 62.03578043 17.77492145 58.74656036 17.68261719 55.45727539 C17.64444851 54.0364627 17.60957487 52.61555737 17.578125 51.19458008 C17.53220935 49.14631145 17.47426195 47.09867392 17.4140625 45.05078125 C17.3826416 43.82012939 17.3512207 42.58947754 17.31884766 41.3215332 C17.01133058 38.11803412 16.47482879 35.84712062 15 33 C12.56381363 31.78190681 11.31476972 31.98191664 8.625 32.25 C7.46871094 32.35054687 7.46871094 32.35054687 6.2890625 32.453125 C3.39300852 33.14501503 2.09608143 33.85903751 0 36 C-0.35711867 38.57797437 -0.46813593 40.72314113 -0.390625 43.29296875 C-0.38496521 43.99899734 -0.37930542 44.70502594 -0.37347412 45.43244934 C-0.35110411 47.68482626 -0.30091199 49.93560503 -0.25 52.1875 C-0.22993556 53.71547179 -0.21168468 55.24346856 -0.1953125 56.77148438 C-0.15123802 60.51493756 -0.08221074 64.25719795 0 68 C-3.63 68 -7.26 68 -11 68 C-11 46.22 -11 24.44 -11 2 C-3 0 -3 0 0 0 Z " fill="#FFFFFF" transform="translate(707,189)"/>
<path d="M0 0 C5.6319761 3.98359285 8.27379726 9.13467674 9.5625 15.8125 C9.5625 18.7825 9.5625 21.7525 9.5625 24.8125 C1.6425 24.8125 -6.2775 24.8125 -14.4375 24.8125 C-14.1075 26.1325 -13.7775 27.4525 -13.4375 28.8125 C-7.10540131 29.96379067 -2.66086123 29.46558033 3.5625 27.8125 C5.2125 31.1125 6.8625 34.4125 8.5625 37.8125 C0.50787322 41.90583492 -7.26565533 44.24355797 -16.25 41.8125 C-21.7546408 39.66194141 -24.99853615 35.71506748 -27.578125 30.51171875 C-29.64999168 24.00417386 -29.41017831 15.754044 -27.3125 9.25 C-21.74547034 -0.95622104 -10.6789774 -3.68910128 0 0 Z M-12.6875 11.6875 C-14.54345121 13.48234847 -14.54345121 13.48234847 -14.4375 14.8125 C-11.1375 14.8125 -7.8375 14.8125 -4.4375 14.8125 C-5.9382211 10.84647946 -5.9382211 10.84647946 -8.3125 9.8125 C-10.65356223 9.58576803 -10.65356223 9.58576803 -12.6875 11.6875 Z " fill="#FFFFFF" transform="translate(2199.4375,185.1875)"/>
<path d="M0 0 C12.21 0 24.42 0 37 0 C36.67 2.64 36.34 5.28 36 8 C27.75 8 19.5 8 11 8 C10.67 13.61 10.34 19.22 10 25 C18.25 25 26.5 25 35 25 C34.67 27.64 34.34 30.28 34 33 C26.08 33 18.16 33 10 33 C10 39.27 10 45.54 10 52 C18.91 52 27.82 52 37 52 C37 54.64 37 57.28 37 60 C24.79 60 12.58 60 0 60 C0 40.2 0 20.4 0 0 Z " fill="#FFFFFF" transform="translate(68,197)"/>
<path d="M0 0 C12.54 0 25.08 0 38 0 C37.67 2.64 37.34 5.28 37 8 C28.42 8 19.84 8 11 8 C11 13.61 11 19.22 11 25 C18.92 25 26.84 25 35 25 C35 27.64 35 30.28 35 33 C27.08 33 19.16 33 11 33 C11 39.27 11 45.54 11 52 C19.91 52 28.82 52 38 52 C37.67 54.64 37.34 57.28 37 60 C24.79 60 12.58 60 0 60 C0 40.2 0 20.4 0 0 Z " fill="#FFFFFF" transform="translate(23,197)"/>
<path d="M0 0 C3.94052454 3.2423248 5.65310923 7.16182658 7 12 C7.71625926 19.49746707 7.58874377 26.30101163 4 33 C-0.06112052 37.67208556 -4.68983962 39.74146586 -10.80078125 40.21875 C-18.67227074 40.45401245 -23.66829804 39.81343721 -29.8125 34.625 C-35.48566999 27.81719602 -34.67916482 19.37636615 -34 11 C-32.5690854 5.68627931 -29.76406749 1.81513079 -25 -1 C-16.69428287 -4.10794576 -7.95210681 -4.05193229 0 0 Z M-17.25 7.75 C-20.98710022 12.55484314 -20.45647695 18.18199385 -20 24 C-19.04318655 27.59279457 -19.04318655 27.59279457 -17 30 C-14.62116511 31.3259856 -14.62116511 31.3259856 -12 31 C-9.17098867 28.79965786 -8.13960155 27.41880464 -7 24 C-6.5016849 17.89564002 -6.12582412 12.07650632 -10 7 C-13.34134927 5.4578388 -14.325252 5.475196 -17.25 7.75 Z " fill="#FFFFFF" transform="translate(2140,261)"/>
<path d="M0 0 C0 2.97 0 5.94 0 9 C-3 10 -3 10 -6.0625 8.5625 C-11.10546211 6.22342396 -16.99039199 5.91275941 -22.23828125 7.80859375 C-24.38527692 8.98879724 -24.38527692 8.98879724 -25 12.375 C-25.36219888 15.93454001 -25.36219888 15.93454001 -23.49609375 18.0078125 C-20.25718545 20.59285668 -16.8892352 21.97209661 -13.0625 23.5 C-7.05806432 25.91058004 -1.994184 28.11187144 1.8125 33.625 C3.81545464 39.31760791 3.81530441 44.59938145 1.875 50.3125 C-1.46029603 55.09309097 -5.43485109 58.28940095 -11 60 C-13.96275581 60.30689609 -16.8983866 60.32471927 -19.875 60.3125 C-20.65230469 60.32861328 -21.42960938 60.34472656 -22.23046875 60.36132812 C-27.55239775 60.36580033 -31.29263751 59.52575194 -36 57 C-37.6415049 53.7169902 -36.51888624 50.57454967 -36 47 C-30.26666667 48.86666667 -30.26666667 48.86666667 -27.75 50.125 C-22.50059584 51.79526496 -17.13307708 51.74004715 -11.9375 49.9375 C-9.72014043 48.01860526 -9.72014043 48.01860526 -8.9375 44.625 C-9.01472637 40.14587035 -9.89851967 39.14657455 -13 36 C-16.19032574 34.36935286 -16.19032574 34.36935286 -19.75 33.125 C-26.11698447 30.63151967 -32.80159624 27.39680752 -36 21 C-36.48787315 15.20950556 -36.7761285 9.84330519 -34.5 4.4375 C-25.30708232 -4.52559474 -11.61569543 -3.81593148 0 0 Z " fill="#FFFFFF" transform="translate(216,198)"/>
<path d="M0 0 C4.29 0 8.58 0 13 0 C16.20628019 6.73318839 18.04022409 13.82741912 20 21 C20.26478149 20.09906616 20.26478149 20.09906616 20.53491211 19.17993164 C21.33245 16.47312842 22.13490682 13.76780837 22.9375 11.0625 C23.21529297 10.11697266 23.49308594 9.17144531 23.77929688 8.19726562 C24.04677734 7.29814453 24.31425781 6.39902344 24.58984375 5.47265625 C24.83597412 4.64000244 25.08210449 3.80734863 25.33569336 2.94946289 C26 1 26 1 27 0 C29.01964199 -0.07244053 31.04167124 -0.08377188 33.0625 -0.0625 C34.71958984 -0.04896484 34.71958984 -0.04896484 36.41015625 -0.03515625 C37.26480469 -0.02355469 38.11945312 -0.01195312 39 0 C36.95523509 8.20160844 34.21990083 15.99224235 31.1875 23.875 C27.26876925 34.21861819 23.92340594 44.57803184 21.05859375 55.2578125 C20 59 20 59 19 60 C16.81360547 60.07258946 14.62499611 60.08373783 12.4375 60.0625 C10.64119141 60.04896484 10.64119141 60.04896484 8.80859375 60.03515625 C7.88175781 60.02355469 6.95492187 60.01195312 6 60 C6.64347308 55.21502461 7.9485765 51.8172322 10.2578125 47.63671875 C12.59699993 39.32644763 8.34908616 30.47743454 5.5625 22.75 C4.95051758 21.01363281 4.95051758 21.01363281 4.32617188 19.2421875 C2.25655363 13.26708823 2.25655363 13.26708823 -0.19555664 7.44628906 C-1 5 -1 5 0 0 Z " fill="#FFFFFF" transform="translate(2275,259)"/>
<path d="M0 0 C4.01126523 3.29815141 5.96170972 5.90293865 7 11 C7 14.63 7 18.26 7 22 C-0.92 22 -8.84 22 -17 22 C-16.34 23.98 -15.68 25.96 -15 28 C-13.16019607 28.99266185 -13.16019607 28.99266185 -11 29 C-10.30261719 29.05542969 -9.60523437 29.11085938 -8.88671875 29.16796875 C-3.85117653 29.21268937 0.22954583 28.6239844 5 27 C6.25378625 31.26287324 6.03374797 34.02092788 4 38 C-3.18830488 41.0881542 -12.06293956 41.30094608 -19.5 38.8125 C-24.73635004 36.10081873 -28.35086026 32.83890439 -30.4921875 27.21484375 C-32.15144472 19.97792958 -32.14754287 12.12741309 -28.265625 5.6484375 C-21.0817958 -3.70827831 -10.18164237 -5.57108733 0 0 Z M-12 6 C-14.5609294 7.79857668 -14.5609294 7.79857668 -17 10 C-17 10.99 -17 11.98 -17 13 C-13.37 13 -9.74 13 -6 13 C-7.3909864 8.08514186 -7.3909864 8.08514186 -10.125 6.6875 C-10.74375 6.460625 -11.3625 6.23375 -12 6 Z " fill="#FFFFFF" transform="translate(2238,261)"/>
<path d="M0 0 C0.33 1.32 0.66 2.64 1 4 C1.86625 3.34 2.7325 2.68 3.625 2 C7.21423463 -0.12695385 8.92694798 -0.38790972 13 0 C14.64177401 3.28354802 13.26642648 6.65628996 12.5625 10.125 C12.41490234 10.87910156 12.26730469 11.63320312 12.11523438 12.41015625 C11.74942352 14.27461157 11.37547644 16.13746714 11 18 C10.071875 17.814375 9.14375 17.62875 8.1875 17.4375 C4.98656229 16.75876119 4.98656229 16.75876119 2 18 C0.52415706 20.95168589 0.89843298 23.92823782 0.9375 27.16015625 C0.94128662 27.86522812 0.94507324 28.57029999 0.94897461 29.29673767 C0.96120928 31.55205322 0.97984449 33.80724214 1 36.0625 C1.0264817 39.03254847 1.04652715 42.0025348 1.0625 44.97265625 C1.07079834 45.66118179 1.07909668 46.34970734 1.08764648 47.05909729 C1.09622683 48.70630162 1.05325029 50.35363427 1 52 C0.67 52.33 0.34 52.66 0 53 C-5.94 53 -11.88 53 -18 53 C-18 36.5 -18 20 -18 3 C-11.54739945 1.15639984 -6.63600809 -0.15432577 0 0 Z " fill="#FFFFFF" transform="translate(1449,111)"/>
<path d="M0 0 C0.33 1.65 0.66 3.3 1 5 C1.845625 4.175 2.69125 3.35 3.5625 2.5 C6.06986741 0.05378789 7.05963112 -0.00250814 10.71484375 -0.15625 C12.34099609 -0.07890625 12.34099609 -0.07890625 14 0 C13.6919856 2.62559844 13.37879818 5.25039806 13.0625 7.875 C12.97548828 8.62136719 12.88847656 9.36773437 12.79882812 10.13671875 C12.11328125 15.7734375 12.11328125 15.7734375 11 18 C10.0925 17.7525 9.185 17.505 8.25 17.25 C5.0036287 16.65484287 5.0036287 16.65484287 2.82128906 18.52246094 C0.3197012 21.92542523 0.54279307 24.19596356 0.609375 28.390625 C0.61503479 29.09523865 0.62069458 29.79985229 0.62652588 30.52581787 C0.64884922 32.76791428 0.69903246 35.00838988 0.75 37.25 C0.77007048 38.77341435 0.7883203 40.29685386 0.8046875 41.8203125 C0.84529407 45.54799586 0.9235757 49.27219242 1 53 C-5.27 53 -11.54 53 -18 53 C-18 36.5 -18 20 -18 3 C-11.76683986 1.2190971 -6.44794995 -0.18964559 0 0 Z " fill="#FFFFFF" transform="translate(267,111)"/>
<path d="M0 0 C0 4.95 0 9.9 0 15 C1.299375 14.979375 2.59875 14.95875 3.9375 14.9375 C5.29165633 14.91600546 6.64756083 14.92851801 8 15 C9 16 9 16 9.09765625 18.50390625 C9.08605469 19.51324219 9.07445313 20.52257812 9.0625 21.5625 C9.05347656 22.57441406 9.04445313 23.58632812 9.03515625 24.62890625 C9.02355469 25.41136719 9.01195313 26.19382812 9 27 C6.03 27 3.06 27 0 27 C0.495 35.415 0.495 35.415 1 44 C3.64 43.67 6.28 43.34 9 43 C8.79920119 45.12786799 8.56342937 47.25245982 8.3125 49.375 C8.18488281 50.55835938 8.05726563 51.74171875 7.92578125 52.9609375 C7 56 7 56 4.76171875 57.38671875 C0.11507932 58.41857503 -4.2792524 58.71590917 -9 58 C-11.89683868 55.7984026 -13.39297231 54.21405538 -15 51 C-15.08471364 49.18658158 -15.10721083 47.37005839 -15.09765625 45.5546875 C-15.09282227 43.94013672 -15.09282227 43.94013672 -15.08789062 42.29296875 C-15.07951172 41.16503906 -15.07113281 40.03710938 -15.0625 38.875 C-15.05798828 37.73933594 -15.05347656 36.60367188 -15.04882812 35.43359375 C-15.03701615 32.62234362 -15.02054507 29.8111977 -15 27 C-16.98 27 -18.96 27 -21 27 C-21 23.04 -21 19.08 -21 15 C-19.02 15 -17.04 15 -15 15 C-15 11.7 -15 8.4 -15 5 C-13.25447527 4.15733289 -11.5033792 3.32619962 -9.75 2.5 C-8.77546875 2.0359375 -7.8009375 1.571875 -6.796875 1.09375 C-4 0 -4 0 0 0 Z " fill="#FFFFFF" transform="translate(2342,93)"/>
<path d="M0 0 C0.33 4.95 0.66 9.9 1 15 C3.64 15.33 6.28 15.66 9 16 C9 19.96 9 23.92 9 28 C6.03 28 3.06 28 0 28 C0.495 35.92 0.495 35.92 1 44 C3.64 44 6.28 44 9 44 C8.9131252 45.95917659 8.80495488 47.91741871 8.6875 49.875 C8.62949219 50.96554688 8.57148438 52.05609375 8.51171875 53.1796875 C8.34285156 54.11039063 8.17398438 55.04109375 8 56 C3.82365616 58.78422922 -0.03113578 59.06775724 -5 59 C-9.17152868 58.01801606 -11.57074703 56.64387946 -14 53 C-14.22705078 50.36450195 -14.22705078 50.36450195 -14.1953125 47.23828125 C-14.18564453 45.56088867 -14.18564453 45.56088867 -14.17578125 43.84960938 C-14.15902344 42.68236328 -14.14226563 41.51511719 -14.125 40.3125 C-14.11597656 39.13365234 -14.10695313 37.95480469 -14.09765625 36.74023438 C-14.07406423 33.82661974 -14.0411454 30.91341108 -14 28 C-14.969375 28.020625 -15.93875 28.04125 -16.9375 28.0625 C-20 28 -20 28 -21 27 C-21.07226502 25.14712498 -21.0838122 23.29166122 -21.0625 21.4375 C-21.05347656 20.42558594 -21.04445313 19.41367188 -21.03515625 18.37109375 C-21.02355469 17.58863281 -21.01195313 16.80617187 -21 16 C-19.02 15.67 -17.04 15.34 -15 15 C-14.67 11.7 -14.34 8.4 -14 5 C-12.04350603 4.16235732 -10.08474444 3.33000941 -8.125 2.5 C-7.03445312 2.0359375 -5.94390625 1.571875 -4.8203125 1.09375 C-2 0 -2 0 0 0 Z " fill="#FFFFFF" transform="translate(2157,169)"/>
<path d="M0 0 C0 5.28 0 10.56 0 16 C2.97 16 5.94 16 9 16 C9 19.96 9 23.92 9 28 C5.04 28.495 5.04 28.495 1 29 C0.97287847 30.916588 0.95354903 32.8332873 0.9375 34.75 C0.92589844 35.81734375 0.91429688 36.8846875 0.90234375 37.984375 C0.98489913 40.53368501 1.25382442 42.57933591 2 45 C5.465 44.505 5.465 44.505 9 44 C9.30769231 53.07692308 9.30769231 53.07692308 7 57 C2.39486519 59.93900739 -2.73104449 59.64788638 -8 59 C-11.61691275 56.90219061 -12.68291409 55.95125774 -14 52 C-14.14835948 50.22833025 -14.24770018 48.45232388 -14.31640625 46.67578125 C-14.35830078 45.64775391 -14.40019531 44.61972656 -14.44335938 43.56054688 C-14.48267578 42.48869141 -14.52199219 41.41683594 -14.5625 40.3125 C-14.60568359 39.22904297 -14.64886719 38.14558594 -14.69335938 37.02929688 C-14.79946838 34.35299209 -14.90152361 31.67659474 -15 29 C-16.65 28.67 -18.3 28.34 -20 28 C-20 24.04 -20 20.08 -20 16 C-18.02 16 -16.04 16 -14 16 C-14 12.7 -14 9.4 -14 6 C-2.2 0 -2.2 0 0 0 Z " fill="#FFFFFF" transform="translate(2420,92)"/>
<path d="M0 0 C3.72380258 3.28049274 6.05583653 6.60500958 7.625 11.3125 C7.625 14.9425 7.625 18.5725 7.625 22.3125 C-1.945 22.3125 -11.515 22.3125 -21.375 22.3125 C-19.9065148 29.79586897 -19.9065148 29.79586897 -15.375 34.3125 C-11.45747554 36.27126223 -6.65517689 35.67522686 -2.375 35.3125 C1.02741824 33.9476132 1.02741824 33.9476132 3.625 32.3125 C4.615 32.3125 5.605 32.3125 6.625 32.3125 C6.295 35.2825 5.965 38.2525 5.625 41.3125 C-1.25848668 45.34185806 -8.58945734 45.06321863 -16.375 44.3125 C-23.12379442 42.4998496 -26.71912201 38.32437203 -30.484375 32.63671875 C-33.09242071 25.83063456 -32.49043128 14.93281675 -29.9375 8.125 C-27.37263568 3.40748169 -23.15567607 0.56981754 -18.375 -1.6875 C-12.0695679 -3.38817648 -5.83523672 -2.91761836 0 0 Z M-20.375 10.3125 C-20.705 11.9625 -21.035 13.6125 -21.375 15.3125 C-15.105 15.3125 -8.835 15.3125 -2.375 15.3125 C-1.89206351 10.41644453 -1.89206351 10.41644453 -4.375 7.5 C-7.72563651 5.05682754 -9.39726469 4.55664795 -13.44140625 4.82421875 C-16.83466968 5.68110346 -18.35913808 7.56359739 -20.375 10.3125 Z " fill="#FFFFFF" transform="translate(376.375,213.6875)"/>
<path d="M0 0 C3.96786936 4.17134984 3.64155368 7.55180054 3.75390625 13.0703125 C3.77468735 13.91093231 3.79546844 14.75155212 3.81687927 15.61764526 C3.88235439 18.30751235 3.9412502 20.99747843 4 23.6875 C4.04318716 25.50912489 4.08680152 27.33073971 4.13085938 29.15234375 C4.23803368 33.62229394 4.33930685 38.09234386 4.4375 42.5625 C0.10416667 42.5625 -4.22916667 42.5625 -8.5625 42.5625 C-10.0475 43.0575 -10.0475 43.0575 -11.5625 43.5625 C-16.85737804 44.06954484 -21.21750981 44.21097741 -26.0625 41.875 C-29.48875867 38.70571073 -31.32626766 36.73780616 -31.84375 31.97265625 C-31.97190329 27.99456443 -31.84951931 24.50556345 -30.6875 20.6875 C-24.12942791 14.12942791 -15.45781057 12.5865306 -6.5625 11.5625 C-7.68104586 7.83635847 -7.68104586 7.83635847 -10.5625 5.5625 C-16.19556277 5.21761861 -21.14831238 6.18746822 -26.5625 7.5625 C-26.5625 4.9225 -26.5625 2.2825 -26.5625 -0.4375 C-18.43188561 -3.41211502 -7.3577841 -5.99588656 0 0 Z M-14.6875 20.875 C-15.35007812 21.11863281 -16.01265625 21.36226562 -16.6953125 21.61328125 C-18.79405999 22.68021774 -20.07714333 23.73853618 -21.5625 25.5625 C-22.09770313 29.15600675 -22.01064771 30.88131548 -20 33.9375 C-16.6359735 36.18018434 -14.53632014 36.050513 -10.5625 35.5625 C-7.77667624 34.57436668 -7.77667624 34.57436668 -5.5625 32.5625 C-4.95692058 29.36874623 -4.95692058 29.36874623 -5.25 25.875 C-5.29511719 24.69550781 -5.34023438 23.51601562 -5.38671875 22.30078125 C-5.44472656 21.39714844 -5.50273438 20.49351562 -5.5625 19.5625 C-8.93196513 19.43922689 -11.5364545 19.67018849 -14.6875 20.875 Z " fill="#FFFFFF" transform="translate(597.5625,214.4375)"/>
<path d="M0 0 C2.97198634 2.05208581 5.3550741 3.99228903 7.625 6.8125 C7.4141997 9.36217979 6.93216295 10.49888744 5.13671875 12.33203125 C4.53472656 12.75871094 3.93273438 13.18539062 3.3125 13.625 C2.71824219 14.06457031 2.12398437 14.50414062 1.51171875 14.95703125 C-0.375 15.8125 -0.375 15.8125 -2.44140625 15.55078125 C-4.375 14.8125 -4.375 14.8125 -7 13.1875 C-7.78375 12.73375 -8.5675 12.28 -9.375 11.8125 C-10.365 12.3075 -10.365 12.3075 -11.375 12.8125 C-12.35051509 15.73904527 -12.53978088 17.75904996 -12.5625 20.8125 C-12.58376953 22.111875 -12.58376953 22.111875 -12.60546875 23.4375 C-12.53755938 26.07971537 -12.53755938 26.07971537 -10.375 28.8125 C-6.68745243 28.31418276 -4.77009338 27.71182357 -2.375 24.8125 C2.21806496 26.2984916 5.06069245 28.66264682 8.625 31.8125 C5.88679751 36.44638114 3.5748081 39.33759595 -1.375 41.8125 C-8.15519322 43.49888537 -14.13660759 42.99963909 -20.375 39.8125 C-24.50212096 36.58257925 -27.23878355 32.9563016 -28.375 27.8125 C-29.05360712 20.00387013 -29.17971551 12.78781178 -25.375 5.8125 C-18.73993068 -1.60428726 -9.20323152 -3.23817405 0 0 Z " fill="#FFFFFF" transform="translate(2450.375,185.1875)"/>
<path d="M0 0 C0.33 0.99 0.66 1.98 1 3 C2.36125 2.2575 2.36125 2.2575 3.75 1.5 C8.90468848 -0.7091522 14.49945576 -0.76438081 20 0 C24.67759158 2.00468211 26.11183416 4.35353663 28 9 C28.43641615 11.82222035 28.4876248 14.60851045 28.51171875 17.4609375 C28.52966995 18.25150543 28.54762115 19.04207336 28.56611633 19.8565979 C28.61996706 22.36267891 28.65403281 24.86857227 28.6875 27.375 C28.72069548 29.08205722 28.75518719 30.78908976 28.79101562 32.49609375 C28.87567852 36.66392653 28.94260907 40.8317061 29 45 C25.37 45 21.74 45 18 45 C17.98541748 44.05157227 17.97083496 43.10314453 17.95581055 42.12597656 C17.89467436 38.5995206 17.8205087 35.07383557 17.73754883 31.54785156 C17.7043412 30.0232166 17.67629622 28.49845994 17.65356445 26.97363281 C17.61994042 24.77877046 17.56762458 22.58501912 17.51171875 20.390625 C17.48553467 19.07094727 17.45935059 17.75126953 17.43237305 16.39160156 C16.98576588 12.88834537 16.56071422 11.39313505 14 9 C8.2870907 8.24546481 6.4221381 9.28893095 1 12 C1 22.89 1 33.78 1 45 C-2.63 45 -6.26 45 -10 45 C-10.33 30.81 -10.66 16.62 -11 2 C-4 0 -4 0 0 0 Z " fill="#FFFFFF" transform="translate(621,212)"/>
<path d="M0 0 C0.33 0.99 0.66 1.98 1 3 C2.36125 2.2575 2.36125 2.2575 3.75 1.5 C9.36384455 -0.87816632 16.29926173 -1.47035091 22.03515625 0.80859375 C25.79154055 3.47590349 26.74992201 6.76267302 27.62939453 11.09545898 C28.43147845 17.38161997 28.20152571 23.73757761 28.125 30.0625 C28.11494832 31.51496778 28.10582635 32.9674423 28.09765625 34.41992188 C28.07582017 37.94675682 28.04141149 41.4733342 28 45 C24.7 45 21.4 45 18 45 C17.98018066 44.11739502 17.96036133 43.23479004 17.93994141 42.32543945 C17.86162134 39.03578043 17.77492145 35.74656036 17.68261719 32.45727539 C17.64444851 31.0364627 17.60957487 29.61555737 17.578125 28.19458008 C17.53220935 26.14631145 17.47426195 24.09867392 17.4140625 22.05078125 C17.3826416 20.82012939 17.3512207 19.58947754 17.31884766 18.3215332 C17.01133058 15.11803412 16.47482879 12.84712062 15 10 C12.53898622 8.76949311 11.27573817 9.01399925 8.5625 9.3125 C7.38880859 9.43044922 7.38880859 9.43044922 6.19140625 9.55078125 C3.72152882 9.91386649 3.72152882 9.91386649 1 12 C0.66197325 14.54579377 0.5112053 16.86149086 0.48828125 19.4140625 C0.47033005 20.14370209 0.45237885 20.87334167 0.43388367 21.62509155 C0.37964868 23.95833535 0.34584438 26.29137314 0.3125 28.625 C0.27933838 30.20575792 0.2448498 31.78648861 0.20898438 33.3671875 C0.12391533 37.24464326 0.05716822 41.12203655 0 45 C-3.3 45 -6.6 45 -10 45 C-10.33 30.81 -10.66 16.62 -11 2 C-4.25 -0.25 -4.25 -0.25 0 0 Z " fill="#FFFFFF" transform="translate(402,212)"/>
<path d="M0 0 C1 1 1 1 1.08178711 3.68041992 C1.0638208 4.85193604 1.04585449 6.02345215 1.02734375 7.23046875 C1.01509766 8.50857422 1.00285156 9.78667969 0.99023438 11.10351562 C0.96552962 13.13982352 0.93769035 15.17597755 0.90405273 17.2121582 C0.87361121 19.17647578 0.8566005 21.14098677 0.83984375 23.10546875 C0.81458618 24.87120239 0.81458618 24.87120239 0.78881836 26.67260742 C1.00860773 30.13562391 1.64849044 32.81017702 3 36 C6.07194908 37.53597454 8.60244293 37.2265038 12 37 C13.98 36.01 15.96 35.02 18 34 C18 23.11 18 12.22 18 1 C21.25303044 -0.62651522 24.39225602 -0.11453156 28 0 C29 1 29 1 29.12025452 2.79066467 C29.11803391 3.57009933 29.11581329 4.349534 29.11352539 5.15258789 C29.11344986 6.03342545 29.11337433 6.914263 29.11329651 7.8217926 C29.10813522 8.77907761 29.10297394 9.73636261 29.09765625 10.72265625 C29.0962413 11.69786728 29.09482635 12.67307831 29.09336853 13.67784119 C29.08775133 16.80609143 29.07519593 19.93427123 29.0625 23.0625 C29.05748722 25.17773334 29.05292393 27.29296781 29.04882812 29.40820312 C29.03777631 34.60549607 29.02050016 39.80273608 29 45 C25.7 45 22.4 45 19 45 C18.67 44.34 18.34 43.68 18 43 C17.2575 43.495 16.515 43.99 15.75 44.5 C10.81799151 46.95426137 5.35140491 46.65332652 0 46 C-3.91343448 44.21492462 -5.46602812 42.81016424 -7.8125 39.25 C-10.76385778 31.17259975 -10.12069459 22.47850424 -10.0625 14 C-10.05798828 12.74832031 -10.05347656 11.49664062 -10.04882812 10.20703125 C-10.03711415 7.13797059 -10.02071073 4.06901093 -10 1 C-6.5848399 0.27800307 -3.50056131 -0.19447563 0 0 Z " fill="#FFFFFF" transform="translate(261,212)"/>
<path d="M0 0 C0.16781282 7.38714445 0.32777871 14.77442832 0.48217773 22.16186523 C0.53568866 24.67720426 0.59102469 27.19250512 0.64819336 29.70776367 C0.72985135 33.31420661 0.8050364 36.92073396 0.87890625 40.52734375 C0.90594131 41.65961899 0.93297638 42.79189423 0.96083069 43.95848083 C0.98092697 44.99948441 1.00102325 46.04048798 1.02172852 47.11303711 C1.04171402 48.03459091 1.06169952 48.95614471 1.08229065 49.90562439 C1 52 1 52 0 53 C-5.94 53 -11.88 53 -18 53 C-18.33 36.5 -18.66 20 -19 3 C-12.28090363 1.08025818 -6.91021914 -0.05750529 0 0 Z " fill="#FFFFFF" transform="translate(737,111)"/>
<path d="M0 0 C0 17.49 0 34.98 0 53 C-5.94 53 -11.88 53 -18 53 C-18.33 36.5 -18.66 20 -19 3 C-12.04774296 1.01364085 -7.17354686 0 0 0 Z " fill="#FFFFFF" transform="translate(1485,111)"/>
<path d="M0 0 C0 17.49 0 34.98 0 53 C-6.27 53 -12.54 53 -19 53 C-19 36.5 -19 20 -19 3 C-11.66179544 0.90337013 -7.61809529 0 0 0 Z " fill="#FFFFFF" transform="translate(348,111)"/>
<path d="M0 0 C0 17.49 0 34.98 0 53 C-6.27 53 -12.54 53 -19 53 C-19 36.5 -19 20 -19 3 C-11.66179544 0.90337013 -7.61809529 0 0 0 Z " fill="#FFFFFF" transform="translate(1370,111)"/>
<path d="M0 0 C0 17.49 0 34.98 0 53 C-6.27 53 -12.54 53 -19 53 C-19 36.5 -19 20 -19 3 C-11.9621022 0.65403407 -7.46280397 0 0 0 Z " fill="#FFFFFF" transform="translate(141,111)"/>
<path d="M0 0 C0 3.96 0 7.92 0 12 C2.31 12 4.62 12 7 12 C8.2380014 15.57644848 7.74926071 18.33694766 7 22 C4.69 22 2.38 22 0 22 C0.33 28.93 0.66 35.86 1 43 C4.465 43.495 4.465 43.495 8 44 C7.88637738 45.4800841 7.75877092 46.95910074 7.625 48.4375 C7.55539063 49.26121094 7.48578125 50.08492188 7.4140625 50.93359375 C7.27742188 51.61550781 7.14078125 52.29742187 7 53 C4.32344199 54.33827901 2.17565948 54.20578556 -0.8125 54.25 C-1.85019531 54.27578125 -2.88789063 54.3015625 -3.95703125 54.328125 C-7.44960798 53.95151852 -9.23421061 53.14312477 -12 51 C-14.13616728 47.69978573 -14.23492433 45.02258453 -14.1953125 41.140625 C-14.18564453 39.46806641 -14.18564453 39.46806641 -14.17578125 37.76171875 C-14.15902344 36.60285156 -14.14226563 35.44398438 -14.125 34.25 C-14.11597656 33.07566406 -14.10695313 31.90132813 -14.09765625 30.69140625 C-14.07410063 27.79406464 -14.04120652 24.89713559 -14 22 C-15.65 21.67 -17.3 21.34 -19 21 C-18.505 16.545 -18.505 16.545 -18 12 C-16.68 12 -15.36 12 -14 12 C-14 9.03 -14 6.06 -14 3 C-4.11570248 -1.37190083 -4.11570248 -1.37190083 0 0 Z " fill="#FFFFFF" transform="translate(2265,247)"/>
<path d="M0 0 C5.28 0 10.56 0 16 0 C16 18.48 16 36.96 16 56 C10.72 56 5.44 56 0 56 C0 37.52 0 19.04 0 0 Z " fill="#FFFFFF" transform="translate(2066,171)"/>
<path d="M0 0 C0 3.3 0 6.6 0 10 C-3 11 -3 11 -5.375 10 C-8.4800176 8.81713615 -9.88340286 8.93379571 -13 10 C-14.93084565 11.58605179 -15.88290172 12.76580344 -17 15 C-17.19758231 17.07564676 -17.19758231 17.07564676 -17.1875 19.375 C-17.20876953 20.53128906 -17.20876953 20.53128906 -17.23046875 21.7109375 C-16.97331551 24.26503575 -16.36329926 25.83476 -15 28 C-9.79995339 31.03336052 -5.53863751 29.38465938 0 28 C0 31.63 0 35.26 0 39 C-7.19557942 42.02971765 -14.09246374 41.96557737 -21.375 39.3125 C-26.88799354 36.86708124 -29.59292618 33.44293426 -32 28 C-33.54470733 20.72942263 -33.50843169 13.67623894 -30 7 C-21.99382381 -2.71535987 -11.32362231 -3.77454077 0 0 Z " fill="#FFFFFF" transform="translate(2183,260)"/>
<path d="M0 0 C0 19.14 0 38.28 0 58 C-4.62 58 -9.24 58 -14 58 C-15 57 -15 57 -15.12025452 54.90562439 C-15.1169236 53.52329369 -15.1169236 53.52329369 -15.11352539 52.11303711 C-15.11344986 51.07203354 -15.11337433 50.03102997 -15.11329651 48.95848083 C-15.10813522 47.8262056 -15.10297394 46.69393036 -15.09765625 45.52734375 C-15.0962413 44.37456436 -15.09482635 43.22178497 -15.09336853 42.03407288 C-15.08775005 38.33518936 -15.07519442 34.63636536 -15.0625 30.9375 C-15.05748738 28.43684983 -15.05292406 25.93619871 -15.04882812 23.43554688 C-15.03777462 17.29034412 -15.02101852 11.14517631 -15 5 C-12.8765984 4.16260219 -10.7512272 3.33019717 -8.625 2.5 C-7.44164063 2.0359375 -6.25828125 1.571875 -5.0390625 1.09375 C-2 0 -2 0 0 0 Z " fill="#FFFFFF" transform="translate(2255,169)"/>
<path d="M0 0 C0 19.14 0 38.28 0 58 C-4.62 58 -9.24 58 -14 58 C-15 57 -15 57 -15.12025452 54.90562439 C-15.1169236 53.52329369 -15.1169236 53.52329369 -15.11352539 52.11303711 C-15.11344986 51.07203354 -15.11337433 50.03102997 -15.11329651 48.95848083 C-15.10813522 47.8262056 -15.10297394 46.69393036 -15.09765625 45.52734375 C-15.0962413 44.37456436 -15.09482635 43.22178497 -15.09336853 42.03407288 C-15.08775005 38.33518936 -15.07519442 34.63636536 -15.0625 30.9375 C-15.05748738 28.43684983 -15.05292406 25.93619871 -15.04882812 23.43554688 C-15.03777462 17.29034412 -15.02101852 11.14517631 -15 5 C-12.8765984 4.16260219 -10.7512272 3.33019717 -8.625 2.5 C-7.44164063 2.0359375 -6.25828125 1.571875 -5.0390625 1.09375 C-2 0 -2 0 0 0 Z " fill="#FFFFFF" transform="translate(2231,169)"/>
<path d="M0 0 C0 18.81 0 37.62 0 57 C-4.95 57 -9.9 57 -15 57 C-15 39.84 -15 22.68 -15 5 C-4 0 -4 0 0 0 Z " fill="#FFFFFF" transform="translate(2613,93)"/>
<path d="M0 0 C4.95 0 9.9 0 15 0 C15 17.82 15 35.64 15 54 C10.38 54.33 5.76 54.66 1 55 C0 54 0 54 -0.12025452 51.82969666 C-0.11803391 50.87261307 -0.11581329 49.91552948 -0.11352539 48.92944336 C-0.11344986 47.84839828 -0.11337433 46.76735321 -0.11329651 45.65354919 C-0.10813522 44.4775264 -0.10297394 43.3015036 -0.09765625 42.08984375 C-0.0962413 40.89267227 -0.09482635 39.69550079 -0.09336853 38.46205139 C-0.08774979 34.62050934 -0.07519411 30.77902457 -0.0625 26.9375 C-0.05748741 24.34049563 -0.05292409 21.74349035 -0.04882812 19.14648438 C-0.03777427 12.76430068 -0.02049708 6.38216007 0 0 Z " fill="#FFFFFF" transform="translate(2066,23)"/>
<path d="M0 0 C0 2.64 0 5.28 0 8 C-0.66 8.33 -1.32 8.66 -2 9 C-3.69921875 8.37109375 -3.69921875 8.37109375 -5.6875 7.4375 C-9.00127023 6.12642575 -10.03672242 6.00550836 -13.75 6.5625 C-18.48419285 8.65646991 -20.33629355 10.38814149 -22.3125 15.1875 C-23.33391373 20.85170343 -23.04644303 25.65796083 -20.6875 30.9375 C-18.78443853 33.26346401 -17.87874975 34.14415548 -15 35 C-9.40781566 35.44382415 -6.70116407 35.22365536 -2 32 C-1.01 32 -0.02 32 1 32 C0.98700144 35.10015629 0.77872944 37.9917575 0 41 C-4.37562165 45.01098651 -10.2903108 44.43275324 -15.9375 44.28515625 C-22.29279254 43.69340069 -25.92786748 40.73247834 -30 36 C-34.10548058 28.81540899 -35.21521057 21.66502573 -33.46875 13.5234375 C-31.60397564 7.46292083 -29.11639894 3.14886146 -23.625 -0.25 C-16.1807725 -4.1456021 -7.50309608 -3.63053036 0 0 Z " fill="#FFFFFF" transform="translate(690,214)"/>
<path d="M0 0 C-0.33 4.29 -0.66 8.58 -1 13 C2.3 12.67 5.6 12.34 9 12 C9 14.64 9 17.28 9 20 C5.7 20 2.4 20 -1 20 C-0.505 34.355 -0.505 34.355 0 49 C2.97 49 5.94 49 9 49 C8.67 51.64 8.34 54.28 8 57 C3.61488537 58.46170488 -0.30682018 58.50025768 -4.75 57.1875 C-8.340195 55.29267486 -9.70942219 53.87173344 -11 50 C-11.08378628 47.7161483 -11.10729915 45.429899 -11.09765625 43.14453125 C-11.0962413 42.48289474 -11.09482635 41.82125824 -11.09336853 41.13957214 C-11.08777996 39.03050172 -11.07522965 36.92153823 -11.0625 34.8125 C-11.05748352 33.38086091 -11.05292087 31.94922015 -11.04882812 30.51757812 C-11.0378143 27.01168412 -11.02055755 23.5058525 -11 20 C-12.98 20.33 -14.96 20.66 -17 21 C-17 18.36 -17 15.72 -17 13 C-15.02 13 -13.04 13 -11 13 C-11 9.37 -11 5.74 -11 2 C-2.25 -1.125 -2.25 -1.125 0 0 Z " fill="#FFFFFF" transform="translate(237,200)"/>
<path d="M0 0 C0 4.29 0 8.58 0 13 C4.455 12.505 4.455 12.505 9 12 C9 14.64 9 17.28 9 20 C6.03 20 3.06 20 0 20 C-0.05821935 23.89577024 -0.0936703 27.79142802 -0.125 31.6875 C-0.14175781 32.79029297 -0.15851563 33.89308594 -0.17578125 35.02929688 C-0.18222656 36.09599609 -0.18867188 37.16269531 -0.1953125 38.26171875 C-0.20578613 39.24100342 -0.21625977 40.22028809 -0.22705078 41.22924805 C0.01402315 44.17112772 0.76944458 46.33237726 2 49 C4.31 49 6.62 49 9 49 C9 51.64 9 54.28 9 57 C4.0354898 58.58864326 -0.46230463 58.60927553 -5.3125 56.6875 C-8 55 -8 55 -10 52 C-10.17112002 49.52943177 -10.23253124 47.17496079 -10.1953125 44.70703125 C-10.1924826 44.00100266 -10.18965271 43.29497406 -10.18673706 42.56755066 C-10.17555464 40.31569367 -10.1504542 38.06423648 -10.125 35.8125 C-10.11496767 34.28451096 -10.10584226 32.75651567 -10.09765625 31.22851562 C-10.07562172 27.48552337 -10.04110567 23.74282944 -10 20 C-10.969375 20.185625 -11.93875 20.37125 -12.9375 20.5625 C-13.948125 20.706875 -14.95875 20.85125 -16 21 C-17 20 -17 20 -17.0625 16.4375 C-17.041875 15.303125 -17.02125 14.16875 -17 13 C-14.69 13 -12.38 13 -10 13 C-10.33 9.37 -10.66 5.74 -11 2 C-2.25 -1.125 -2.25 -1.125 0 0 Z " fill="#FFFFFF" transform="translate(451,200)"/>
<path d="M0 0 C4.95 0 9.9 0 15 0 C15 13.86 15 27.72 15 42 C10.05 42 5.1 42 0 42 C0 28.14 0 14.28 0 0 Z " fill="#FFFFFF" transform="translate(2265,185)"/>
<path d="M0 0 C4.62 0 9.24 0 14 0 C15 1 15 1 15.11352539 4.87719727 C15.11336621 6.60694167 15.10766849 8.33669081 15.09765625 10.06640625 C15.0962413 10.97502914 15.09482635 11.88365204 15.09336853 12.81980896 C15.08775193 15.73407221 15.07519665 18.64825981 15.0625 21.5625 C15.05748714 23.53320202 15.05292386 25.50390524 15.04882812 27.47460938 C15.03777711 32.31643559 15.02050138 37.15820495 15 42 C10.05 42 5.1 42 0 42 C0 28.14 0 14.28 0 0 Z " fill="#FFFFFF" transform="translate(2438,108)"/>
<path d="M0 0 C3.96 0 7.92 0 12 0 C12 19.8 12 39.6 12 60 C8.04 60 4.08 60 0 60 C0 40.2 0 20.4 0 0 Z " fill="#FFFFFF" transform="translate(1,197)"/>
<path d="M0 0 C0 13.86 0 27.72 0 42 C-4.95 42 -9.9 42 -15 42 C-15 28.8 -15 15.6 -15 2 C-4 0 -4 0 0 0 Z " fill="#FFFFFF" transform="translate(2202,258)"/>
<path d="M0 0 C0.33 0.99 0.66 1.98 1 3 C1.39832031 2.50886719 1.79664063 2.01773438 2.20703125 1.51171875 C4.5121755 -0.43183425 5.7196719 -0.316536 8.6875 -0.1875 C10.110625 -0.125625 11.53375 -0.06375 13 0 C12.34 3.3 11.68 6.6 11 10 C9.88625 10.12375 8.7725 10.2475 7.625 10.375 C3.96896323 10.6465813 3.96896323 10.6465813 2 13 C0.75327239 16.46034536 0.88576925 19.86923572 0.90234375 23.515625 C0.90556641 24.76601562 0.90878906 26.01640625 0.91210938 27.3046875 C0.92048828 28.60664063 0.92886719 29.90859375 0.9375 31.25 C0.94201172 32.56742188 0.94652344 33.88484375 0.95117188 35.2421875 C0.96295684 38.49483741 0.97940989 41.74739584 1 45 C-2.63 45 -6.26 45 -10 45 C-10 30.81 -10 16.62 -10 2 C-4 0 -4 0 0 0 Z " fill="#FFFFFF" transform="translate(552,212)"/>
<path d="M0 0 C0 4.95 0 9.9 0 15 C-6.32983901 16.25033857 -11.47899821 17 -18 17 C-18 12.05 -18 7.1 -18 2 C-11.67016099 0.74966143 -6.52100179 0 0 0 Z " fill="#FFFFFF" transform="translate(1369,88)"/>
<path d="M0 0 C0 4.95 0 9.9 0 15 C-6.32983901 16.25033857 -11.47899821 17 -18 17 C-18 12.05 -18 7.1 -18 2 C-11.67016099 0.74966143 -6.52100179 0 0 0 Z " fill="#FFFFFF" transform="translate(140,88)"/>
<path d="M0 0 C0 4.95 0 9.9 0 15 C-6.32983901 16.25033857 -11.47899821 17 -18 17 C-18 12.05 -18 7.1 -18 2 C-11.67016099 0.74966143 -6.52100179 0 0 0 Z " fill="#FFFFFF" transform="translate(347,88)"/>
<path d="M0 0 C5.61 0 11.22 0 17 0 C15.39224062 6.43103752 11.99793105 13.4406629 7 18 C2.76397383 19.18568196 -0.72692838 18.91101019 -5 18 C-4.0989759 11.68334683 -2.07457519 6.02296023 0 0 Z " fill="#FFFFFF" transform="translate(1474,89)"/>
<path d="M0 0 C0 4.95 0 9.9 0 15 C-1.69125 15.33 -3.3825 15.66 -5.125 16 C-6.07632813 16.185625 -7.02765625 16.37125 -8.0078125 16.5625 C-11 17 -11 17 -17 17 C-17 12.05 -17 7.1 -17 2 C-10.93860586 0.67147526 -6.31514414 0 0 0 Z " fill="#FFFFFF" transform="translate(736,88)"/>
<path d="M0 0 C3 2.0625 3 2.0625 5 5 C5.06584389 8.81894541 4.85572029 10.97971812 2.375 13.9375 C-1.60074843 15.7161243 -5.30896214 15.62301395 -9.375 14.125 C-11 13 -11 13 -12 11 C-12.46315789 4.63157895 -12.46315789 4.63157895 -10.625 2.125 C-7.02826479 -0.36504745 -4.35765689 -0.44315155 0 0 Z " fill="#FFFFFF" transform="translate(2276,168)"/>
<path d="M0 0 C2.5625 1.625 2.5625 1.625 4 4 C4.60817046 7.64902278 4.51417751 9.26828585 2.375 12.3125 C-0.54050173 14.38404071 -2.4342722 14.85446009 -6 15 C-9.13356684 14.07417343 -10.68468695 13.31531305 -13 11 C-13.67276051 3.93601463 -13.67276051 3.93601463 -11.5625 1 C-7.68367154 -0.51368916 -4.10220933 -0.66990207 0 0 Z " fill="#FFFFFF" transform="translate(2450,92)"/>
<path d="M0 0 C0.02687279 1.81242052 0.04633715 3.62495233 0.0625 5.4375 C0.07410156 6.44683594 0.08570312 7.45617187 0.09765625 8.49609375 C0 11 0 11 -1 12 C-3.18292774 12.23481693 -5.37203174 12.41363323 -7.5625 12.5625 C-8.76003906 12.64628906 -9.95757813 12.73007813 -11.19140625 12.81640625 C-12.11824219 12.87699219 -13.04507813 12.93757812 -14 13 C-14.05391993 11.20866022 -14.09275571 9.41686101 -14.125 7.625 C-14.14820312 6.62726563 -14.17140625 5.62953125 -14.1953125 4.6015625 C-14 2 -14 2 -12 0 C-9.94140625 -0.44921875 -9.94140625 -0.44921875 -7.5625 -0.6875 C-6.78003906 -0.77386719 -5.99757813 -0.86023438 -5.19140625 -0.94921875 C-3 -1 -3 -1 0 0 Z " fill="#FFFFFF" transform="translate(2201,241)"/>
<path d="M0 0 C2.1015625 0.44921875 2.1015625 0.44921875 4.2265625 2.57421875 C5.28939995 6.06639895 5.23245409 7.9811512 4.1015625 11.44921875 C2.4765625 13.38671875 2.4765625 13.38671875 0.1015625 14.44921875 C-3.34957202 14.32812631 -5.86706529 14.0813501 -8.8359375 12.26171875 C-10.43917307 9.52678748 -10.27921228 7.55887945 -9.8984375 4.44921875 C-8.01835225 -0.31366387 -4.61983489 -0.21820067 0 0 Z M-6.8984375 4.44921875 C-7.2284375 5.43921875 -7.5584375 6.42921875 -7.8984375 7.44921875 C-7.2384375 8.10921875 -6.5784375 8.76921875 -5.8984375 9.44921875 C-5.8984375 7.79921875 -5.8984375 6.14921875 -5.8984375 4.44921875 C-6.2284375 4.44921875 -6.5584375 4.44921875 -6.8984375 4.44921875 Z M1.1015625 5.44921875 C0.7715625 6.76921875 0.4415625 8.08921875 0.1015625 9.44921875 C0.7615625 9.44921875 1.4215625 9.44921875 2.1015625 9.44921875 C1.7715625 8.12921875 1.4415625 6.80921875 1.1015625 5.44921875 Z " fill="#FFFFFF" transform="translate(2325.8984375,257.55078125)"/>
</svg>
